<svg width="910" height="157" viewBox="0 0 910 157" fill="none" xmlns="http://www.w3.org/2000/svg">
<path opacity="0.22" d="M33.6 62.51H32.6V63.51H33.6V62.51ZM33.6 23.9V22.9H32.6V23.9H33.6ZM33.6 109.7H32.6V110.7H33.6V109.7ZM58.515 104.585L59.178 105.334L58.515 104.585ZM57.525 70.925L58.1281 70.1273L57.525 70.925ZM33.6 65.81V64.81H32.6V65.81H33.6ZM0.6 113H-0.4V114H0.6V113ZM0.6 109.7V108.7H-0.4V109.7H0.6ZM8.85 109.7V110.7H9.85V109.7H8.85ZM8.85 23.9H9.85V22.9H8.85V23.9ZM0.6 23.9H-0.4V24.9H0.6V23.9ZM0.6 20.6V19.6H-0.4V20.6H0.6ZM72.21 26.87L71.662 27.7065L71.6685 27.7107L72.21 26.87ZM76.17 58.385L76.8665 59.1026L76.8668 59.1023L76.17 58.385ZM60.99 63.83V62.83H59.99V63.83H60.99ZM60.99 64.82H59.99V65.82H60.99V64.82ZM80.955 71.255L80.3322 72.0375L80.3422 72.0452L80.955 71.255ZM79.635 107.06L80.169 107.906L80.1795 107.899L79.635 107.06ZM33.6 63.51H38.715V61.51H33.6V63.51ZM38.715 63.51C45.5118 63.51 50.7952 61.8959 54.3777 58.4911C57.9697 55.0772 59.68 50.0275 59.68 43.535H57.68C57.68 49.6925 56.0628 54.1303 52.9998 57.0414C49.9273 59.9615 45.2282 61.51 38.715 61.51V63.51ZM59.68 43.535C59.68 36.8316 57.9747 31.6213 54.3899 28.0958C50.8082 24.5733 45.52 22.9 38.715 22.9V24.9C45.22 24.9 49.9143 26.4992 52.9876 29.5217C56.0578 32.5412 57.68 37.1484 57.68 43.535H59.68ZM38.715 22.9H33.6V24.9H38.715V22.9ZM32.6 23.9V62.51H34.6V23.9H32.6ZM33.6 110.7H42.84V108.7H33.6V110.7ZM42.84 110.7C49.6131 110.7 55.0981 108.947 59.178 105.334L57.852 103.836C54.2319 107.043 49.2669 108.7 42.84 108.7V110.7ZM59.178 105.334C63.296 101.686 65.29 96.4307 65.29 89.735H63.29C63.29 96.0193 61.434 100.664 57.852 103.836L59.178 105.334ZM65.29 89.735C65.29 80.4849 63.0099 73.8185 58.1281 70.1273L56.9219 71.7227C61.0601 74.8515 63.29 80.7251 63.29 89.735H65.29ZM58.1281 70.1273C53.387 66.5426 46.9325 64.81 38.88 64.81V66.81C46.6675 66.81 52.643 68.4874 56.9219 71.7227L58.1281 70.1273ZM38.88 64.81H33.6V66.81H38.88V64.81ZM32.6 65.81V109.7H34.6V65.81H32.6ZM1.6 113V109.7H-0.4V113H1.6ZM0.6 110.7H8.85V108.7H0.6V110.7ZM9.85 109.7V23.9H7.85V109.7H9.85ZM8.85 22.9H0.6V24.9H8.85V22.9ZM1.6 23.9V20.6H-0.4V23.9H1.6ZM0.6 21.6H42.18V19.6H0.6V21.6ZM42.18 21.6C55.7588 21.6 65.5289 23.6882 71.662 27.7065L72.758 26.0335C66.1311 21.6918 55.8812 19.6 42.18 19.6V21.6ZM71.6685 27.7107C77.8944 31.7206 80.945 37.135 80.945 44.03H82.945C82.945 36.405 79.5056 30.3794 72.7515 26.0293L71.6685 27.7107ZM80.945 44.03C80.945 49.6155 79.1116 54.1333 75.4732 57.6677L76.8668 59.1023C80.9284 55.1567 82.945 50.1044 82.945 44.03H80.945ZM75.4735 57.6674C71.9602 61.0774 67.1717 62.83 60.99 62.83V64.83C67.5684 64.83 72.8998 62.9525 76.8665 59.1026L75.4735 57.6674ZM59.99 63.83V64.82H61.99V63.83H59.99ZM60.99 65.82C68.7193 65.82 75.1452 67.9089 80.3323 72.0374L81.5778 70.4726C75.9848 66.021 69.1007 63.82 60.99 63.82V65.82ZM80.3422 72.0452C85.4504 76.0067 88.04 81.6883 88.04 89.24H90.04C90.04 81.1717 87.2396 74.8633 81.5678 70.4648L80.3422 72.0452ZM88.04 89.24C88.04 96.7296 85.0615 102.345 79.0905 106.221L80.1795 107.899C86.7485 103.635 90.04 97.3704 90.04 89.24H88.04ZM79.101 106.215C73.0578 110.031 64.3101 112 52.74 112V114C64.4899 114 73.6722 112.009 80.169 107.905L79.101 106.215ZM52.74 112H0.6V114H52.74V112ZM168.521 80V81H169.521V80H168.521ZM118.691 80V79H117.633L117.693 80.0567L118.691 80ZM154.001 106.4L153.659 105.46L153.652 105.463L154.001 106.4ZM164.561 98.975L165.142 98.1613L164.315 97.5704L163.738 98.4073L164.561 98.975ZM166.871 100.625L167.731 101.136L168.201 100.346L167.452 99.8113L166.871 100.625ZM154.496 110.69L154.909 111.601L154.496 110.69ZM121.496 113L121.243 113.967L121.253 113.97L121.264 113.973L121.496 113ZM107.966 107.06L107.436 107.908L107.966 107.06ZM97.571 94.685L96.6557 95.0877L96.659 95.0954L96.6625 95.1029L97.571 94.685ZM104.996 45.185L105.651 45.9411L105.657 45.9355L104.996 45.185ZM157.961 46.01L157.248 46.7115L157.254 46.7171L157.961 46.01ZM118.526 76.7H117.526V77.7H118.526V76.7ZM145.421 76.7V77.7H146.421V76.7H145.421ZM142.121 50.135L141.157 50.4005L141.161 50.4134L142.121 50.135ZM121.661 49.805L122.622 50.0816L122.623 50.0778L121.661 49.805ZM168.521 79H118.691V81H168.521V79ZM117.693 80.0567C118.248 89.8309 120.433 97.3255 124.378 102.394C128.363 107.514 134.051 110.04 141.296 110.04V108.04C134.571 108.04 129.506 105.726 125.956 101.166C122.367 96.5545 120.234 89.5291 119.689 79.9433L117.693 80.0567ZM141.296 110.04C145.189 110.04 149.545 109.125 154.35 107.337L153.652 105.463C148.997 107.195 144.883 108.04 141.296 108.04V110.04ZM154.343 107.34C159.315 105.532 163.033 102.952 165.384 99.5427L163.738 98.4073C161.689 101.378 158.368 103.748 153.659 105.46L154.343 107.34ZM163.98 99.7887L166.29 101.439L167.452 99.8113L165.142 98.1613L163.98 99.7887ZM166.011 100.114C163.727 103.956 159.791 107.194 154.084 109.779L154.909 111.601C160.861 108.906 165.175 105.434 167.731 101.136L166.011 100.114ZM154.084 109.779C148.37 112.366 142.68 113.65 137.006 113.65V115.65C142.992 115.65 148.962 114.294 154.909 111.601L154.084 109.779ZM137.006 113.65C131.349 113.65 126.258 113.106 121.728 112.027L121.264 113.973C125.974 115.094 131.223 115.65 137.006 115.65V113.65ZM121.749 112.033C117.235 110.85 112.818 108.913 108.496 106.212L107.436 107.908C111.914 110.707 116.517 112.73 121.243 113.967L121.749 112.033ZM108.496 106.212C104.288 103.582 100.942 99.6201 98.4795 94.2671L96.6625 95.1029C99.2601 100.75 102.844 105.038 107.436 107.908L108.496 106.212ZM98.4863 94.2823C96.1362 88.9411 94.941 82.4311 94.941 74.72H92.941C92.941 82.6289 94.1658 89.4289 96.6557 95.0877L98.4863 94.2823ZM94.941 74.72C94.941 61.589 98.572 52.0688 105.651 45.9411L104.342 44.4289C96.6801 51.0612 92.941 61.231 92.941 74.72H94.941ZM105.657 45.9355C112.832 39.6172 121.502 36.45 131.726 36.45V34.45C121.05 34.45 111.9 37.7728 104.335 44.4345L105.657 45.9355ZM131.726 36.45C142.039 36.45 150.52 39.8766 157.248 46.7115L158.674 45.3085C151.542 38.0634 142.533 34.45 131.726 34.45V36.45ZM157.254 46.7171C164.023 53.4866 167.521 64.4988 167.521 80H169.521C169.521 64.2612 165.979 52.6133 158.668 45.3029L157.254 46.7171ZM118.526 77.7H145.421V75.7H118.526V77.7ZM146.421 76.7C146.421 66.5108 145.314 57.5583 143.081 49.8566L141.161 50.4134C143.328 57.8917 144.421 66.6492 144.421 76.7H146.421ZM143.085 49.8695C142.019 45.9985 140.59 42.9866 138.74 40.9279C136.862 38.838 134.564 37.75 131.891 37.75V39.75C133.948 39.75 135.72 40.5595 137.252 42.2646C138.812 44.0009 140.133 46.6815 141.157 50.4005L143.085 49.8695ZM131.891 37.75C129.229 37.75 126.933 38.8017 125.052 40.8346C123.199 42.8376 121.766 45.7682 120.699 49.5322L122.623 50.0778C123.646 46.4718 124.964 43.8749 126.52 42.1929C128.049 40.5408 129.823 39.75 131.891 39.75V37.75ZM120.7 49.5284C118.579 56.8976 117.526 65.3539 117.526 74.885H119.526C119.526 65.4961 120.563 57.2324 122.622 50.0816L120.7 49.5284ZM117.526 74.885V76.7H119.526V74.885H117.526ZM225.553 93.695L225.049 94.5588L225.058 94.5641L225.067 94.5692L225.553 93.695ZM211.198 88.085L210.951 89.054L211.198 88.085ZM194.533 83.135L194.205 84.0798L194.211 84.0818L194.533 83.135ZM181.003 74.225L180.247 74.8792L180.252 74.8849L180.257 74.8906L181.003 74.225ZM176.713 58.22L175.718 58.1205L176.713 58.22ZM186.778 41.885L186.206 41.0644L186.2 41.0693L186.778 41.885ZM231.163 39.74L231.624 38.8528L231.163 39.74ZM240.403 51.29L239.412 51.4251L239.414 51.4365L240.403 51.29ZM238.918 59.54L238.047 59.0479L238.039 59.0626L238.031 59.0774L238.918 59.54ZM232.153 63.5L232.119 62.5006L232.117 62.5006L232.153 63.5ZM224.398 61.025L223.734 61.7724L223.744 61.7813L223.754 61.7899L224.398 61.025ZM224.233 48.815L224.963 49.4989L224.973 49.4879L224.983 49.4766L224.233 48.815ZM221.263 40.235L220.992 41.1976L221.01 41.2026L221.027 41.2068L221.263 40.235ZM197.503 41.885L196.928 41.0672L197.503 41.885ZM198.493 57.56L197.975 58.4153L197.986 58.4219L198.493 57.56ZM212.023 63.005L211.762 63.9702L211.771 63.9728L211.78 63.9751L212.023 63.005ZM227.698 67.625L227.376 68.5716L227.388 68.5757L227.4 68.5795L227.698 67.625ZM241.063 75.71L240.345 76.4065L240.351 76.4118L240.356 76.4171L241.063 75.71ZM238.588 108.215L239.23 108.982L239.239 108.974L238.588 108.215ZM187.603 110.03L187.162 110.927L187.167 110.93L187.603 110.03ZM176.548 97.325L177.54 97.1984L177.539 97.1884L177.537 97.1785L176.548 97.325ZM184.798 85.115L184.762 84.1156L184.798 85.115ZM192.388 87.59L191.724 88.3374L191.734 88.3463L191.744 88.3549L192.388 87.59ZM192.718 99.965L193.448 100.649L193.458 100.638L193.468 100.627L192.718 99.965ZM197.833 109.7L197.561 110.662L197.573 110.666L197.586 110.669L197.833 109.7ZM214.333 112.68C220.112 112.68 224.603 111.894 227.684 110.206C229.239 109.353 230.453 108.26 231.275 106.909C232.098 105.556 232.493 104 232.493 102.275H230.493C230.493 103.685 230.173 104.872 229.566 105.87C228.958 106.87 228.027 107.737 226.722 108.452C224.083 109.899 219.994 110.68 214.333 110.68V112.68ZM232.493 102.275C232.493 98.2851 230.21 95.1384 226.039 92.8208L225.067 94.5692C228.816 96.6516 230.493 99.2249 230.493 102.275H232.493ZM226.057 92.8312C221.999 90.464 217.123 88.5632 211.445 87.116L210.951 89.054C216.493 90.4668 221.187 92.306 225.049 94.5588L226.057 92.8312ZM211.445 87.116C205.86 85.6924 200.33 84.0499 194.855 82.1882L194.211 84.0818C199.736 85.9601 205.316 87.6176 210.951 89.054L211.445 87.116ZM194.861 82.1902C189.624 80.3734 185.261 77.4962 181.749 73.5594L180.257 74.8906C184.005 79.0938 188.662 82.1566 194.205 84.0798L194.861 82.1902ZM181.759 73.5708C178.459 69.7552 177.069 64.7142 177.708 58.3195L175.718 58.1205C175.037 64.9258 176.507 70.5548 180.247 74.8792L181.759 73.5708ZM177.708 58.3195C178.336 52.0432 181.511 46.8456 187.356 42.7007L186.2 41.0693C179.945 45.5044 176.41 51.1968 175.718 58.1205L177.708 58.3195ZM187.35 42.7056C193.312 38.5529 200.638 36.45 209.383 36.45V34.45C200.308 34.45 192.564 36.6371 186.207 41.0644L187.35 42.7056ZM209.383 36.45C218.31 36.45 225.394 37.8673 230.702 40.6272L231.624 38.8528C225.932 35.8927 218.496 34.45 209.383 34.45V36.45ZM230.702 40.6272C236 43.3824 238.808 46.9927 239.412 51.4251L241.394 51.1549C240.678 45.9073 237.326 41.8176 231.624 38.8528L230.702 40.6272ZM239.414 51.4365C239.822 54.1943 239.364 56.7185 238.047 59.0479L239.789 60.0321C241.332 57.3015 241.864 54.3257 241.392 51.1434L239.414 51.4365ZM238.031 59.0774C236.901 61.2447 235 62.4012 232.119 62.5006L232.187 64.4994C235.686 64.3788 238.295 62.8953 239.805 60.0026L238.031 59.0774ZM232.117 62.5006C229.251 62.603 226.918 61.8397 225.042 60.2601L223.754 61.7899C226.058 63.7303 228.895 64.617 232.189 64.4994L232.117 62.5006ZM225.062 60.2776C223.271 58.6855 222.498 56.9294 222.592 54.9676L220.594 54.8724C220.468 57.5306 221.565 59.8445 223.734 61.7724L225.062 60.2776ZM222.592 54.9676C222.69 52.9059 223.467 51.0937 224.963 49.4989L223.503 48.1311C221.699 50.0563 220.716 52.3141 220.594 54.8724L222.592 54.9676ZM224.983 49.4766C225.836 48.5102 226.504 47.6117 226.963 46.7844C227.417 45.9671 227.708 45.148 227.708 44.36H225.708C225.708 44.672 225.586 45.1454 225.215 45.8131C224.85 46.4708 224.28 47.2498 223.483 48.1534L224.983 49.4766ZM227.708 44.36C227.708 43.043 227.047 41.9597 225.951 41.1292C224.886 40.3223 223.372 39.7174 221.499 39.2631L221.027 41.2068C222.784 41.6326 223.993 42.1552 224.743 42.7233C225.462 43.2677 225.708 43.807 225.708 44.36H227.708ZM221.534 39.2723C217.904 38.2515 213.684 37.75 208.888 37.75V39.75C213.552 39.75 217.582 40.2385 220.992 41.1976L221.534 39.2723ZM208.888 37.75C204.118 37.75 200.107 38.83 196.928 41.0672L198.078 42.7028C200.839 40.76 204.418 39.75 208.888 39.75V37.75ZM196.928 41.0672C193.746 43.3061 192.048 46.1732 192.048 49.64H194.048C194.048 46.9468 195.32 44.6439 198.078 42.7028L196.928 41.0672ZM192.048 49.64C192.048 53.1954 194.172 56.1103 197.975 58.4152L199.011 56.7048C195.554 54.6097 194.048 52.2446 194.048 49.64H192.048ZM197.986 58.4219C201.82 60.6771 206.417 62.5227 211.762 63.9702L212.284 62.0398C207.069 60.6273 202.646 58.8429 199 56.6981L197.986 58.4219ZM211.78 63.9751C217.033 65.2884 222.232 66.8205 227.376 68.5716L228.02 66.6784C222.824 64.9094 217.573 63.3616 212.266 62.0349L211.78 63.9751ZM227.4 68.5795C232.531 70.1829 236.839 72.7934 240.345 76.4065L241.781 75.0135C238.027 71.1466 233.425 68.3671 227.996 66.6705L227.4 68.5795ZM240.356 76.4171C243.892 79.9534 245.673 84.4214 245.673 89.9H247.673C247.673 83.9386 245.714 78.9466 241.77 75.0029L240.356 76.4171ZM245.673 89.9C245.673 97.221 243.089 103.04 237.937 107.456L239.239 108.974C244.867 104.15 247.673 97.759 247.673 89.9H245.673ZM237.946 107.448C232.812 111.744 224.946 113.98 214.168 113.98V115.98C225.17 115.98 233.584 113.706 239.23 108.982L237.946 107.448ZM214.168 113.98C203.368 113.98 194.677 112.342 188.039 109.13L187.167 110.93C194.169 114.318 203.188 115.98 214.168 115.98V113.98ZM188.044 109.133C181.494 105.911 178.141 101.905 177.54 97.1984L175.556 97.4516C176.275 103.085 180.292 107.549 187.162 110.927L188.044 109.133ZM177.537 97.1785C177.129 94.4207 177.587 91.8965 178.904 89.5671L177.162 88.5829C175.619 91.3135 175.087 94.2893 175.559 97.4715L177.537 97.1785ZM178.904 89.5671C180.15 87.3614 182.076 86.2129 184.834 86.1144L184.762 84.1156C181.36 84.2371 178.776 85.7286 177.162 88.5829L178.904 89.5671ZM184.834 86.1144C187.702 86.0119 189.967 86.7761 191.724 88.3374L193.052 86.8426C190.849 84.8839 188.054 83.9981 184.762 84.1156L184.834 86.1144ZM191.744 88.3549C193.644 89.9552 194.452 91.7073 194.359 93.6474L196.357 93.7426C196.484 91.0627 195.312 88.7448 193.032 86.8251L191.744 88.3549ZM194.359 93.6474C194.261 95.7121 193.48 97.5895 191.968 99.3034L193.468 100.627C195.256 98.6005 196.235 96.2979 196.357 93.7426L194.359 93.6474ZM191.988 99.2811C191.133 100.194 190.46 101.054 189.996 101.858C189.536 102.654 189.243 103.463 189.243 104.255H191.243C191.243 103.947 191.362 103.491 191.728 102.857C192.089 102.231 192.653 101.496 193.448 100.649L191.988 99.2811ZM189.243 104.255C189.243 105.798 190.147 107.067 191.558 108.079C192.96 109.085 194.985 109.934 197.561 110.662L198.105 108.738C195.621 108.036 193.851 107.263 192.723 106.454C191.604 105.651 191.243 104.912 191.243 104.255H189.243ZM197.586 110.669C202.844 112.011 208.427 112.68 214.333 112.68V110.68C208.579 110.68 203.162 110.029 198.08 108.731L197.586 110.669ZM282.579 40.4V39.4H281.579V40.4H282.579ZM283.734 97.985L282.795 98.3307L282.798 98.3391L282.802 98.3474L283.734 97.985ZM286.209 103.1L287.075 102.6L287.068 102.588L287.06 102.576L286.209 103.1ZM303.534 105.74H304.534V103.871L302.979 104.908L303.534 105.74ZM303.534 109.04L304.112 109.856L304.534 109.557V109.04H303.534ZM265.089 108.05L265.761 107.31L265.089 108.05ZM257.829 40.4H258.829V39.4H257.829V40.4ZM245.619 40.4H244.619V41.4H245.619V40.4ZM245.619 37.1V36.1H244.619V37.1H245.619ZM257.829 37.1V38.1H257.911L257.993 38.0864L257.829 37.1ZM271.854 29.51L272.57 30.2077L272.579 30.1983L271.854 29.51ZM280.269 11.855V10.855H279.453L279.289 11.6533L280.269 11.855ZM282.579 11.855H283.579V10.855H282.579V11.855ZM282.579 37.1H281.579V38.1H282.579V37.1ZM301.719 37.1H302.719V36.1H301.719V37.1ZM301.719 40.4V41.4H302.719V40.4H301.719ZM281.579 40.4V80.66H283.579V40.4H281.579ZM281.579 80.66C281.579 85.4002 281.675 89.2337 281.87 92.1528C282.061 95.0307 282.354 97.1331 282.795 98.3307L284.672 97.6393C284.343 96.7469 284.058 94.9168 283.865 92.0197C283.675 89.1638 283.579 85.3798 283.579 80.66H281.579ZM282.802 98.3474C283.588 100.37 284.438 102.131 285.357 103.624L287.06 102.576C286.219 101.209 285.419 99.5604 284.666 97.6226L282.802 98.3474ZM285.342 103.6C287.215 106.845 290.458 108.39 294.789 108.39V106.39C290.979 106.39 288.502 105.075 287.075 102.6L285.342 103.6ZM294.789 108.39C298.99 108.39 302.172 107.85 304.088 106.572L302.979 104.908C301.595 105.83 298.947 106.39 294.789 106.39V108.39ZM302.534 105.74V109.04H304.534V105.74H302.534ZM302.956 108.224C297.839 111.848 292.265 113.65 286.209 113.65V115.65C292.693 115.65 298.668 113.712 304.112 109.856L302.956 108.224ZM286.209 113.65C277.115 113.65 270.353 111.485 265.761 107.31L264.416 108.79C269.504 113.415 276.822 115.65 286.209 115.65V113.65ZM265.761 107.31C261.24 103.2 258.829 95.6978 258.829 84.455H256.829C256.829 95.8722 259.257 104.1 264.416 108.79L265.761 107.31ZM258.829 84.455V40.4H256.829V84.455H258.829ZM257.829 39.4H245.619V41.4H257.829V39.4ZM246.619 40.4V37.1H244.619V40.4H246.619ZM245.619 38.1H257.829V36.1H245.619V38.1ZM257.993 38.0864C263.502 37.1682 268.366 34.5257 272.57 30.2076L271.137 28.8124C267.202 32.8543 262.715 35.2718 257.664 36.1136L257.993 38.0864ZM272.579 30.1983C276.81 25.7388 279.681 19.667 281.248 12.0566L279.289 11.6533C277.776 19.003 275.037 24.7012 271.128 28.8217L272.579 30.1983ZM280.269 12.855H282.579V10.855H280.269V12.855ZM281.579 11.855V37.1H283.579V11.855H281.579ZM282.579 38.1H301.719V36.1H282.579V38.1ZM300.719 37.1V40.4H302.719V37.1H300.719ZM301.719 39.4H282.579V41.4H301.719V39.4ZM375.337 125.045H374.337V126.108L375.398 126.043L375.337 125.045ZM404.377 127.85L404.612 126.878L404.605 126.876L404.377 127.85ZM442.162 127.85L441.513 127.089L441.506 127.095L441.499 127.101L442.162 127.85ZM446.617 118.28V117.28H445.617V118.28H446.617ZM449.917 118.28H450.917V117.28H449.917V118.28ZM444.802 146.66L443.923 146.182L443.92 146.189L444.802 146.66ZM403.717 146.33L404.384 145.585L404.383 145.584L403.717 146.33ZM394.477 138.08L393.81 138.825L393.811 138.826L394.477 138.08ZM358.177 133.955L357.324 134.476L357.907 135.432L358.791 134.744L358.177 133.955ZM356.362 130.985L355.703 130.232L355.069 130.787L355.509 131.506L356.362 130.985ZM366.757 124.22L366.396 123.287L366.383 123.292L366.37 123.298L366.757 124.22ZM374.017 121.58L374.311 122.536L374.346 122.525L374.379 122.512L374.017 121.58ZM385.072 118.445L385.31 119.416L385.334 119.41L385.358 119.403L385.072 118.445ZM406.192 33.8L405.334 34.3145L405.34 34.3234L406.192 33.8ZM372.037 33.965L372.916 34.4421L372.919 34.4369L372.037 33.965ZM371.047 97.325L370.142 97.7508L370.146 97.7589L370.15 97.7668L371.047 97.325ZM387.052 108.38H388.052V107.38H387.052V108.38ZM387.052 111.68V112.68H388.052V111.68H387.052ZM351.907 100.625L352.559 99.8664L351.907 100.625ZM425.662 32.81L424.967 33.5294L425.662 32.81ZM434.902 89.735L434.013 89.2759L434.007 89.2878L434.902 89.735ZM420.877 106.4L421.473 107.203L421.475 107.202L420.877 106.4ZM375.337 124.385L375.172 123.399L374.337 123.539V124.385H375.337ZM375.398 126.043C384.306 125.5 393.887 126.422 404.149 128.824L404.605 126.876C394.186 124.438 384.408 123.49 375.276 124.047L375.398 126.043ZM404.142 128.822C414.617 131.358 422.903 132.645 428.962 132.645V130.645C423.141 130.645 415.036 129.402 404.612 126.878L404.142 128.822ZM428.962 132.645C435.016 132.645 439.704 131.36 442.824 128.599L441.499 127.101C438.9 129.4 434.788 130.645 428.962 130.645V132.645ZM442.81 128.611C446 125.894 447.617 122.427 447.617 118.28H445.617C445.617 121.833 444.264 124.746 441.513 127.089L442.81 128.611ZM446.617 119.28H449.917V117.28H446.617V119.28ZM448.917 118.28C448.917 130.874 447.214 140.132 443.923 146.182L445.68 147.138C449.21 140.648 450.917 130.986 450.917 118.28H448.917ZM443.92 146.189C440.729 152.158 434.916 155.23 426.157 155.23V157.23C435.438 157.23 442.054 153.922 445.684 147.131L443.92 146.189ZM426.157 155.23C418.88 155.23 411.628 152.072 404.384 145.585L403.05 147.075C410.546 153.788 418.254 157.23 426.157 157.23V155.23ZM404.383 145.584C401.303 142.834 398.223 140.084 395.143 137.334L393.811 138.826C396.891 141.576 399.971 144.326 403.051 147.076L404.383 145.584ZM395.144 137.335C387.658 130.631 380.115 127.18 372.532 127.18V129.18C379.469 129.18 386.556 132.329 393.81 138.825L395.144 137.335ZM372.532 127.18C367.622 127.18 362.626 129.227 357.563 133.166L358.791 134.744C363.628 130.983 368.202 129.18 372.532 129.18V127.18ZM359.03 133.434L357.215 130.464L355.509 131.506L357.324 134.476L359.03 133.434ZM357.02 131.738C360.48 128.71 363.855 126.521 367.144 125.142L366.37 123.298C362.839 124.779 359.284 127.1 355.703 130.232L357.02 131.738ZM367.118 125.153C370.528 123.832 372.919 122.964 374.311 122.536L373.723 120.624C372.255 121.076 369.806 121.968 366.396 123.287L367.118 125.153ZM374.379 122.512C376.29 121.769 379.916 120.737 385.31 119.416L384.834 117.474C379.448 118.793 375.703 119.851 373.654 120.648L374.379 122.512ZM385.358 119.403C395.011 116.524 402.277 110.705 407.108 101.975C411.922 93.277 414.287 81.7466 414.287 67.46H412.287C412.287 81.5534 409.949 92.7105 405.358 101.007C400.784 109.273 393.943 114.756 384.786 117.487L385.358 119.403ZM414.287 67.46C414.287 52.6401 411.914 41.2043 407.044 33.2766L405.34 34.3234C409.93 41.7957 412.287 52.7999 412.287 67.46H414.287ZM407.049 33.2855C402.306 25.3796 396.192 21.25 388.702 21.25V23.25C395.292 23.25 400.838 26.8204 405.334 34.3145L407.049 33.2855ZM388.702 21.25C381.297 21.25 375.452 25.4641 371.155 33.4931L372.919 34.4369C376.981 26.8459 382.247 23.25 388.702 23.25V21.25ZM371.158 33.4879C366.867 41.3929 364.767 52.1959 364.767 65.81H366.767C366.767 52.3641 368.847 41.9371 372.916 34.4421L371.158 33.4879ZM364.767 65.81C364.767 79.4047 366.532 90.079 370.142 97.7508L371.952 96.8992C368.522 89.611 366.767 79.2753 366.767 65.81H364.767ZM370.15 97.7668C372.02 101.565 374.362 104.477 377.202 106.439C380.051 108.407 383.347 109.38 387.052 109.38V107.38C383.717 107.38 380.825 106.511 378.339 104.793C375.844 103.07 373.703 100.455 371.944 96.8831L370.15 97.7668ZM386.052 108.38V111.68H388.052V108.38H386.052ZM387.052 110.68C372.365 110.68 360.907 107.037 352.559 99.8664L351.255 101.384C360.067 108.953 372.039 112.68 387.052 112.68V110.68ZM352.559 99.8664C344.256 92.7346 340.037 82.2116 340.037 68.12H338.037C338.037 82.6284 342.398 93.7754 351.255 101.384L352.559 99.8664ZM340.037 68.12C340.037 54.054 344.518 42.5459 353.443 33.5129L352.021 32.1071C342.686 41.554 338.037 53.586 338.037 68.12H340.037ZM353.443 33.5129C362.357 24.4922 374.13 19.95 388.867 19.95V17.95C373.684 17.95 361.367 22.6478 352.021 32.1071L353.443 33.5129ZM388.867 19.95C403.603 19.95 415.608 24.4924 424.967 33.5294L426.357 32.0906C416.576 22.6476 404.051 17.95 388.867 17.95V19.95ZM424.967 33.5294C434.331 42.5706 439.017 53.9111 439.017 67.625H441.017C441.017 53.3989 436.132 41.5294 426.357 32.0906L424.967 33.5294ZM439.017 67.625C439.017 75.6209 437.343 82.8311 434.013 89.276L435.79 90.194C439.28 83.4389 441.017 75.9091 441.017 67.625H439.017ZM434.007 89.2878C430.779 95.7448 426.207 101.179 420.279 105.598L421.475 107.202C427.647 102.601 432.425 96.9252 435.796 90.1822L434.007 89.2878ZM420.28 105.597C408.445 114.392 393.423 120.339 375.172 123.399L375.502 125.371C393.991 122.271 409.329 116.228 421.473 107.203L420.28 105.597ZM374.337 124.385V125.045H376.337V124.385H374.337ZM507.105 113H506.105V114H507.105V113ZM507.105 104.255H508.105V101.096L506.287 103.68L507.105 104.255ZM497.205 111.845L497.615 112.757L497.625 112.752L497.205 111.845ZM453.48 40.4H454.48V39.4H453.48V40.4ZM445.23 40.4H444.23V41.4H445.23V40.4ZM445.23 37.1V36.1H444.23V37.1H445.23ZM478.23 37.1H479.23V36.1H478.23V37.1ZM481.695 103.265L482.514 102.692L481.695 103.265ZM507.105 98.315L507.969 98.8189L508.105 98.5854V98.315H507.105ZM507.105 40.4H508.105V39.4H507.105V40.4ZM498.855 40.4H497.855V41.4H498.855V40.4ZM498.855 37.1V36.1H497.855V37.1H498.855ZM531.855 37.1H532.855V36.1H531.855V37.1ZM531.855 109.7H530.855V110.7H531.855V109.7ZM540.105 109.7H541.105V108.7H540.105V109.7ZM540.105 113V114H541.105V113H540.105ZM508.105 113V104.255H506.105V113H508.105ZM506.287 103.68C504.329 106.463 501.191 108.895 496.784 110.938L497.625 112.752C502.238 110.615 505.701 107.987 507.923 104.83L506.287 103.68ZM496.795 110.933C492.533 112.851 487.889 113.815 482.85 113.815V115.815C488.151 115.815 493.077 114.799 497.615 112.757L496.795 110.933ZM482.85 113.815C473.236 113.815 466.203 111.213 461.557 106.176C456.898 101.124 454.48 93.45 454.48 82.97H452.48C452.48 93.72 454.957 101.969 460.087 107.532C465.232 113.11 472.884 115.815 482.85 115.815V113.815ZM454.48 82.97V40.4H452.48V82.97H454.48ZM453.48 39.4H445.23V41.4H453.48V39.4ZM446.23 40.4V37.1H444.23V40.4H446.23ZM445.23 38.1H478.23V36.1H445.23V38.1ZM477.23 37.1V86.6H479.23V37.1H477.23ZM477.23 86.6C477.23 94.4528 478.38 100.274 480.876 103.838L482.514 102.692C480.389 99.6561 479.23 94.3672 479.23 86.6H477.23ZM480.876 103.838C483.402 107.448 487.199 109.215 492.09 109.215V107.215C487.741 107.215 484.607 105.682 482.514 102.692L480.876 103.838ZM492.09 109.215C498.695 109.215 503.99 105.64 507.969 98.8189L506.241 97.8111C502.52 104.19 497.805 107.215 492.09 107.215V109.215ZM508.105 98.315V40.4H506.105V98.315H508.105ZM507.105 39.4H498.855V41.4H507.105V39.4ZM499.855 40.4V37.1H497.855V40.4H499.855ZM498.855 38.1H531.855V36.1H498.855V38.1ZM530.855 37.1V109.7H532.855V37.1H530.855ZM531.855 110.7H540.105V108.7H531.855V110.7ZM539.105 109.7V113H541.105V109.7H539.105ZM540.105 112H507.105V114H540.105V112ZM628.419 109.7L629.126 110.407L629.419 110.114V109.7H628.419ZM622.149 112.67L622.391 113.64L622.407 113.636L622.423 113.632L622.149 112.67ZM594.429 105.74L595.348 105.346L594.753 103.959L593.708 105.047L594.429 105.74ZM554.169 110.195L553.572 110.998L553.585 111.007L553.598 111.016L554.169 110.195ZM556.974 80.66L557.543 81.4823L557.553 81.4748L556.974 80.66ZM587.004 72.08L587.118 73.0734L587.128 73.0723L587.004 72.08ZM593.604 71.255L593.728 72.2473L594.604 72.1378V71.255H593.604ZM591.459 43.865L592.376 43.4674V43.4674L591.459 43.865ZM574.794 40.73L575.466 41.4699L575.484 41.4539L575.501 41.4371L574.794 40.73ZM573.474 44.69L572.496 44.8995L572.497 44.9072L572.499 44.9149L573.474 44.69ZM575.124 50.465L574.171 50.7682L575.124 50.465ZM572.649 64.985L573.356 65.6921L572.649 64.985ZM555.489 64.985L554.781 65.6921L554.79 65.7003L554.798 65.7084L555.489 64.985ZM560.439 41.885L561.008 42.7072L561.011 42.705L560.439 41.885ZM610.929 42.545L610.247 43.2766L610.255 43.2842L610.929 42.545ZM620.499 107.225L619.766 107.905L619.778 107.919L619.792 107.932L620.499 107.225ZM628.419 108.05H629.419V106.796L628.196 107.075L628.419 108.05ZM571.329 94.355L570.332 94.4317L570.334 94.4586L570.337 94.4855L571.329 94.355ZM575.949 104.09L575.274 104.828L575.283 104.837L575.292 104.845L575.949 104.09ZM593.604 102.44L594.397 103.048L594.604 102.779V102.44H593.604ZM593.604 74.39H594.604V73.2415L593.466 73.3995L593.604 74.39ZM587.664 75.215L587.793 76.2066L587.801 76.2055L587.664 75.215ZM575.289 80.99L574.581 80.2829L574.575 80.2891L574.569 80.2954L575.289 80.99ZM627.711 108.993C626.804 109.901 624.929 110.836 621.874 111.708L622.423 113.632C625.528 112.744 627.834 111.699 629.126 110.407L627.711 108.993ZM621.906 111.7C618.924 112.445 615.434 112.825 611.424 112.825V114.825C615.554 114.825 619.213 114.435 622.391 113.64L621.906 111.7ZM611.424 112.825C602.559 112.825 597.422 110.187 595.348 105.346L593.509 106.134C596.055 112.073 602.248 114.825 611.424 114.825V112.825ZM593.708 105.047C588.465 110.5 580.359 113.32 569.184 113.32V115.32C580.668 115.32 589.392 112.42 595.149 106.433L593.708 105.047ZM569.184 113.32C563.285 113.32 558.493 111.981 554.739 109.374L553.598 111.016C557.764 113.909 562.982 115.32 569.184 115.32V113.32ZM554.765 109.392C551.209 106.75 549.394 102.892 549.394 97.655H547.394C547.394 103.418 549.429 107.92 553.572 110.998L554.765 109.392ZM549.394 97.655C549.394 90.5901 552.111 85.2427 557.543 81.4822L556.404 79.8378C550.396 83.9973 547.394 89.9799 547.394 97.655H549.394ZM557.553 81.4748C563.054 77.5609 572.844 74.7204 587.118 73.0734L586.889 71.0866C572.563 72.7396 562.333 75.619 556.394 79.8452L557.553 81.4748ZM587.128 73.0723L593.728 72.2473L593.48 70.2627L586.88 71.0877L587.128 73.0723ZM594.604 71.255V63.17H592.604V71.255H594.604ZM594.604 63.17C594.604 58.3637 594.424 54.3228 594.061 51.0558C593.7 47.805 593.15 45.2543 592.376 43.4674L590.541 44.2626C591.197 45.7757 591.72 48.0925 592.073 51.2767C592.425 54.4447 592.604 58.4062 592.604 63.17H594.604ZM592.376 43.4674C591.584 41.639 590.374 40.2283 588.741 39.2863C587.12 38.3512 585.148 37.915 582.879 37.915V39.915C584.899 39.915 586.502 40.3038 587.741 41.0187C588.969 41.7267 589.903 42.791 590.541 44.2626L592.376 43.4674ZM582.879 37.915C580.748 37.915 578.949 38.0684 577.503 38.393C576.074 38.7139 574.884 39.225 574.086 40.0229L575.501 41.4371C575.913 41.025 576.676 40.6286 577.941 40.3445C579.19 40.0641 580.829 39.915 582.879 39.915V37.915ZM574.121 39.9901C572.66 41.3183 572.088 42.9952 572.496 44.8995L574.451 44.4805C574.199 43.3048 574.507 42.3417 575.466 41.4699L574.121 39.9901ZM572.499 44.9149C572.838 46.3835 573.397 48.3381 574.171 50.7682L576.076 50.1618C575.31 47.7519 574.769 45.8565 574.448 44.4651L572.499 44.9149ZM574.171 50.7682C574.93 53.1537 575.279 54.9632 575.279 56.24H577.279C577.279 54.6568 576.857 52.6163 576.076 50.1618L574.171 50.7682ZM575.279 56.24C575.279 59.3837 574.175 62.0447 571.941 64.2779L573.356 65.6921C575.962 63.0853 577.279 59.9163 577.279 56.24H575.279ZM571.941 64.2779C569.828 66.3914 567.226 67.45 564.069 67.45V69.45C567.731 69.45 570.849 68.1986 573.356 65.6921L571.941 64.2779ZM564.069 67.45C561.03 67.45 558.416 66.3968 556.179 64.2616L554.798 65.7084C557.401 68.1932 560.508 69.45 564.069 69.45V67.45ZM556.196 64.2779C553.962 62.0447 552.859 59.3837 552.859 56.24H550.859C550.859 59.9163 552.175 63.0853 554.781 65.6921L556.196 64.2779ZM552.859 56.24C552.859 51.038 555.484 46.531 561.008 42.7072L559.869 41.0628C553.953 45.159 550.859 50.222 550.859 56.24H552.859ZM561.011 42.705C566.599 38.8039 574.994 36.78 586.344 36.78V34.78C574.813 34.78 565.938 36.8261 559.866 41.065L561.011 42.705ZM586.344 36.78C597.814 36.78 605.688 39.0289 610.247 43.2766L611.61 41.8134C606.489 37.0411 597.974 34.78 586.344 34.78V36.78ZM610.255 43.2842C614.89 47.5067 617.354 55.1223 617.354 66.47H619.354C619.354 54.9377 616.868 46.6033 611.602 41.8058L610.255 43.2842ZM617.354 66.47V96.17H619.354V66.47H617.354ZM617.354 96.17C617.354 99.118 617.534 101.567 617.908 103.497C618.277 105.398 618.859 106.928 619.766 107.905L621.231 106.545C620.709 105.982 620.218 104.9 619.872 103.116C619.531 101.36 619.354 99.052 619.354 96.17H617.354ZM619.792 107.932C621.624 109.764 624.759 109.912 628.641 109.025L628.196 107.075C624.379 107.948 622.233 107.546 621.206 106.518L619.792 107.932ZM627.419 108.05V109.7H629.419V108.05H627.419ZM570.337 94.4855C570.911 98.8434 572.533 102.325 575.274 104.828L576.623 103.352C574.304 101.235 572.847 98.2266 572.32 94.2245L570.337 94.4855ZM575.292 104.845C578.001 107.2 581.148 108.39 584.694 108.39V106.39C581.639 106.39 578.956 105.38 576.605 103.335L575.292 104.845ZM584.694 108.39C588.483 108.39 591.724 106.535 594.397 103.048L592.81 101.832C590.423 104.945 587.724 106.39 584.694 106.39V108.39ZM594.604 102.44V74.39H592.604V102.44H594.604ZM593.466 73.3995L587.526 74.2245L587.801 76.2055L593.741 75.3805L593.466 73.3995ZM587.534 74.2234C582.286 74.908 577.948 76.9167 574.581 80.2829L575.996 81.6971C579.01 78.6833 582.922 76.842 587.793 76.2066L587.534 74.2234ZM574.569 80.2954C571.236 83.7476 569.876 88.5158 570.332 94.4317L572.326 94.2783C571.901 88.7542 573.181 84.6124 576.008 81.6846L574.569 80.2954ZM668.006 109.7H667.006V110.7H668.006V109.7ZM676.256 109.7H677.256V108.7H676.256V109.7ZM676.256 113V114H677.256V113H676.256ZM635.006 113H634.006V114H635.006V113ZM635.006 109.7V108.7H634.006V109.7H635.006ZM643.256 109.7V110.7H644.256V109.7H643.256ZM643.256 5.74999H644.256V4.74999H643.256V5.74999ZM635.006 5.74999H634.006V6.74999H635.006V5.74999ZM635.006 2.45V1.45H634.006V2.45H635.006ZM668.006 2.45H669.006V1.45H668.006V2.45ZM668.006 110.7H676.256V108.7H668.006V110.7ZM675.256 109.7V113H677.256V109.7H675.256ZM676.256 112H635.006V114H676.256V112ZM636.006 113V109.7H634.006V113H636.006ZM635.006 110.7H643.256V108.7H635.006V110.7ZM644.256 109.7V5.74999H642.256V109.7H644.256ZM643.256 4.74999H635.006V6.74999H643.256V4.74999ZM636.006 5.74999V2.45H634.006V5.74999H636.006ZM635.006 3.45H668.006V1.45H635.006V3.45ZM667.006 2.45V109.7H669.006V2.45H667.006ZM717.557 109.7H716.557V110.7H717.557V109.7ZM725.807 109.7H726.807V108.7H725.807V109.7ZM725.807 113V114H726.807V113H725.807ZM684.557 113H683.557V114H684.557V113ZM684.557 109.7V108.7H683.557V109.7H684.557ZM692.807 109.7V110.7H693.807V109.7H692.807ZM692.807 40.4H693.807V39.4H692.807V40.4ZM686.207 40.4H685.207V41.4H686.207V40.4ZM686.207 37.1V36.1H685.207V37.1H686.207ZM717.557 37.1H718.557V36.1H717.557V37.1ZM714.752 25.55L714.045 24.8429L714.752 25.55ZM694.292 25.55L693.585 26.2571L693.592 26.264L693.599 26.2708L694.292 25.55ZM694.292 4.925L694.999 5.6321L694.292 4.925ZM714.752 4.925L714.031 5.6181L714.038 5.62517L714.045 5.6321L714.752 4.925ZM717.557 110.7H725.807V108.7H717.557V110.7ZM724.807 109.7V113H726.807V109.7H724.807ZM725.807 112H684.557V114H725.807V112ZM685.557 113V109.7H683.557V113H685.557ZM684.557 110.7H692.807V108.7H684.557V110.7ZM693.807 109.7V40.4H691.807V109.7H693.807ZM692.807 39.4H686.207V41.4H692.807V39.4ZM687.207 40.4V37.1H685.207V40.4H687.207ZM686.207 38.1H717.557V36.1H686.207V38.1ZM716.557 37.1V109.7H718.557V37.1H716.557ZM718.042 15.32C718.042 19.0085 716.722 22.1659 714.045 24.8429L715.459 26.2571C718.502 23.2141 720.042 19.5515 720.042 15.32H718.042ZM714.045 24.8429C711.492 27.3959 708.341 28.675 704.522 28.675V30.675C708.844 30.675 712.512 29.2041 715.459 26.2571L714.045 24.8429ZM704.522 28.675C700.821 28.675 697.659 27.4004 694.985 24.8292L693.599 26.2708C696.645 29.1996 700.303 30.675 704.522 30.675V28.675ZM694.999 24.8429C692.322 22.1659 691.002 19.0085 691.002 15.32H689.002C689.002 19.5515 690.542 23.2141 693.585 26.2571L694.999 24.8429ZM691.002 15.32C691.002 11.5133 692.328 8.30325 694.999 5.6321L693.585 4.21789C690.536 7.26675 689.002 10.9867 689.002 15.32H691.002ZM694.999 5.6321C697.676 2.95514 700.834 1.63499 704.522 1.63499V-0.365009C700.291 -0.365009 696.628 1.17484 693.585 4.21789L694.999 5.6321ZM704.522 1.63499C708.328 1.63499 711.475 2.95981 714.031 5.6181L715.473 4.23189C712.529 1.17018 708.856 -0.365009 704.522 -0.365009V1.63499ZM714.045 5.6321C716.716 8.30325 718.042 11.5133 718.042 15.32H720.042C720.042 10.9867 718.508 7.26674 715.459 4.21789L714.045 5.6321ZM764.469 40.4V39.4H763.469V40.4H764.469ZM765.624 97.985L764.685 98.3307L764.689 98.3391L764.692 98.3474L765.624 97.985ZM768.099 103.1L768.965 102.6L768.958 102.588L768.95 102.576L768.099 103.1ZM785.424 105.74H786.424V103.871L784.869 104.908L785.424 105.74ZM785.424 109.04L786.002 109.856L786.424 109.557V109.04H785.424ZM746.979 108.05L747.651 107.31L746.979 108.05ZM739.719 40.4H740.719V39.4H739.719V40.4ZM727.509 40.4H726.509V41.4H727.509V40.4ZM727.509 37.1V36.1H726.509V37.1H727.509ZM739.719 37.1V38.1H739.802L739.883 38.0864L739.719 37.1ZM753.744 29.51L754.46 30.2077L754.469 30.1983L753.744 29.51ZM762.159 11.855V10.855H761.344L761.179 11.6533L762.159 11.855ZM764.469 11.855H765.469V10.855H764.469V11.855ZM764.469 37.1H763.469V38.1H764.469V37.1ZM783.609 37.1H784.609V36.1H783.609V37.1ZM783.609 40.4V41.4H784.609V40.4H783.609ZM763.469 40.4V80.66H765.469V40.4H763.469ZM763.469 80.66C763.469 85.4002 763.565 89.2337 763.76 92.1528C763.952 95.0307 764.244 97.1331 764.685 98.3307L766.562 97.6393C766.233 96.7469 765.948 94.9168 765.755 92.0197C765.565 89.1638 765.469 85.3798 765.469 80.66H763.469ZM764.692 98.3474C765.478 100.37 766.328 102.131 767.247 103.624L768.95 102.576C768.109 101.209 767.309 99.5604 766.556 97.6226L764.692 98.3474ZM767.233 103.6C769.105 106.845 772.349 108.39 776.679 108.39V106.39C772.869 106.39 770.393 105.075 768.965 102.6L767.233 103.6ZM776.679 108.39C780.88 108.39 784.062 107.85 785.979 106.572L784.869 104.908C783.486 105.83 780.837 106.39 776.679 106.39V108.39ZM784.424 105.74V109.04H786.424V105.74H784.424ZM784.846 108.224C779.729 111.848 774.155 113.65 768.099 113.65V115.65C774.583 115.65 780.559 113.712 786.002 109.856L784.846 108.224ZM768.099 113.65C759.005 113.65 752.244 111.485 747.651 107.31L746.306 108.79C751.394 113.415 758.712 115.65 768.099 115.65V113.65ZM747.651 107.31C743.13 103.2 740.719 95.6978 740.719 84.455H738.719C738.719 95.8722 741.148 104.1 746.306 108.79L747.651 107.31ZM740.719 84.455V40.4H738.719V84.455H740.719ZM739.719 39.4H727.509V41.4H739.719V39.4ZM728.509 40.4V37.1H726.509V40.4H728.509ZM727.509 38.1H739.719V36.1H727.509V38.1ZM739.883 38.0864C745.392 37.1682 750.256 34.5257 754.46 30.2076L753.027 28.8124C749.092 32.8543 744.605 35.2718 739.554 36.1136L739.883 38.0864ZM754.469 30.1983C758.7 25.7388 761.571 19.667 763.138 12.0566L761.179 11.6533C759.666 19.003 756.927 24.7012 753.018 28.8217L754.469 30.1983ZM762.159 12.855H764.469V10.855H762.159V12.855ZM763.469 11.855V37.1H765.469V11.855H763.469ZM764.469 38.1H783.609V36.1H764.469V38.1ZM782.609 37.1V40.4H784.609V37.1H782.609ZM783.609 39.4H764.469V41.4H783.609V39.4ZM825.408 131.315L826.315 131.737L826.32 131.726L826.325 131.714L825.408 131.315ZM816.003 145.01L815.363 144.242L815.355 144.248L815.348 144.254L816.003 145.01ZM789.933 145.67L790.551 144.884L790.542 144.877L790.533 144.87L789.933 145.67ZM788.613 127.025L787.906 126.318L787.897 126.327L787.889 126.335L788.613 127.025ZM804.948 125.375L805.43 124.499L804.948 125.375ZM809.568 129.335L808.716 129.859L808.721 129.867L809.568 129.335ZM822.108 129.5L823.023 129.904L823.026 129.897L823.029 129.891L822.108 129.5ZM829.038 113.165L829.959 113.556L830.145 113.117L829.921 112.696L829.038 113.165ZM790.428 40.4L791.311 39.9313L791.029 39.4H790.428V40.4ZM783.828 40.4H782.828V41.4H783.828V40.4ZM783.828 37.1V36.1H782.828V37.1H783.828ZM828.213 37.1H829.213V36.1H828.213V37.1ZM828.213 40.4V41.4H829.213V40.4H828.213ZM819.963 40.4V39.4H818.334L819.071 40.8526L819.963 40.4ZM842.073 83.96L841.181 84.4126L842.142 86.3055L842.99 84.3594L842.073 83.96ZM861.048 40.4L861.965 40.7994L862.574 39.4H861.048V40.4ZM847.848 40.4H846.848V41.4H847.848V40.4ZM847.848 37.1V36.1H846.848V37.1H847.848ZM874.908 37.1H875.908V36.1H874.908V37.1ZM874.908 40.4V41.4H875.908V40.4H874.908ZM865.008 40.4V39.4H864.353L864.091 40.0007L865.008 40.4ZM824.501 130.893C821.559 137.214 818.5 141.628 815.363 144.242L816.643 145.778C820.106 142.892 823.317 138.176 826.315 131.737L824.501 130.893ZM815.348 144.254C812.273 146.919 808.127 148.3 802.803 148.3V150.3C808.479 150.3 813.133 148.821 816.658 145.766L815.348 144.254ZM802.803 148.3C797.438 148.3 793.396 147.119 790.551 144.884L789.315 146.456C792.63 149.061 797.168 150.3 802.803 150.3V148.3ZM790.533 144.87C787.713 142.755 786.313 139.921 786.313 136.265H784.313C784.313 140.529 785.993 143.965 789.333 146.47L790.533 144.87ZM786.313 136.265C786.313 132.615 787.35 129.802 789.337 127.715L787.889 126.335C785.476 128.868 784.313 132.215 784.313 136.265H786.313ZM789.32 127.732C791.448 125.605 793.945 124.56 796.863 124.56V122.56C793.401 122.56 790.398 123.825 787.906 126.318L789.32 127.732ZM796.863 124.56C799.929 124.56 802.448 125.142 804.466 126.251L805.43 124.499C803.048 123.188 800.177 122.56 796.863 122.56V124.56ZM804.466 126.251C806.584 127.416 807.961 128.632 808.716 129.859L810.42 128.811C809.415 127.178 807.712 125.754 805.43 124.499L804.466 126.251ZM808.721 129.867C809.96 131.837 811.191 133.373 812.425 134.427C813.659 135.48 814.967 136.11 816.333 136.11V134.11C815.609 134.11 814.745 133.777 813.723 132.906C812.702 132.034 811.596 130.683 810.415 128.803L808.721 129.867ZM816.333 136.11C819.189 136.11 821.355 133.685 823.023 129.904L821.193 129.096C819.561 132.795 817.877 134.11 816.333 134.11V136.11ZM823.029 129.891L829.959 113.556L828.117 112.774L821.187 129.109L823.029 129.891ZM829.921 112.696L791.311 39.9313L789.545 40.8687L828.155 113.634L829.921 112.696ZM790.428 39.4H783.828V41.4H790.428V39.4ZM784.828 40.4V37.1H782.828V40.4H784.828ZM783.828 38.1H828.213V36.1H783.828V38.1ZM827.213 37.1V40.4H829.213V37.1H827.213ZM828.213 39.4H819.963V41.4H828.213V39.4ZM819.071 40.8526L841.181 84.4126L842.965 83.5074L820.855 39.9474L819.071 40.8526ZM842.99 84.3594L861.965 40.7994L860.131 40.0006L841.156 83.5606L842.99 84.3594ZM861.048 39.4H847.848V41.4H861.048V39.4ZM848.848 40.4V37.1H846.848V40.4H848.848ZM847.848 38.1H874.908V36.1H847.848V38.1ZM873.908 37.1V40.4H875.908V37.1H873.908ZM874.908 39.4H865.008V41.4H874.908V39.4ZM864.091 40.0007L824.491 130.916L826.325 131.714L865.925 40.7993L864.091 40.0007ZM883.574 112.01L882.867 112.717L883.574 112.01ZM883.574 90.395L882.867 89.6879L883.574 90.395ZM905.189 90.395L904.482 91.1021L905.189 90.395ZM905.189 112.01L904.482 111.303L905.189 112.01ZM894.299 115.465C890.386 115.465 887.065 114.086 884.281 111.303L882.867 112.717C886.024 115.874 889.853 117.465 894.299 117.465V115.465ZM884.281 111.303C881.498 108.519 880.119 105.198 880.119 101.285H878.119C878.119 105.732 879.711 109.561 882.867 112.717L884.281 111.303ZM880.119 101.285C880.119 97.2539 881.503 93.8801 884.281 91.1021L882.867 89.6879C879.705 92.8499 878.119 96.7361 878.119 101.285H880.119ZM884.281 91.1021C887.065 88.3186 890.386 86.94 894.299 86.94V84.94C889.853 84.94 886.024 86.5314 882.867 89.6879L884.281 91.1021ZM894.299 86.94C898.33 86.94 901.704 88.3241 904.482 91.1021L905.896 89.6879C902.734 86.5259 898.848 84.94 894.299 84.94V86.94ZM904.482 91.1021C907.26 93.8801 908.644 97.2539 908.644 101.285H910.644C910.644 96.7361 909.058 92.8499 905.896 89.6879L904.482 91.1021ZM908.644 101.285C908.644 105.198 907.266 108.519 904.482 111.303L905.896 112.717C909.053 109.561 910.644 105.732 910.644 101.285H908.644ZM904.482 111.303C901.704 114.081 898.33 115.465 894.299 115.465V117.465C898.848 117.465 902.734 115.879 905.896 112.717L904.482 111.303Z" fill="#3D713C"/>
</svg>
