<svg width="178" height="52" viewBox="0 0 178 52" fill="none" xmlns="http://www.w3.org/2000/svg">
<rect y="7" width="119" height="42" rx="7" fill="#A6B0A5"/>
<path d="M17.24 42.385C14.5567 42.385 12.62 41.5567 11.43 39.9C10.2633 38.22 9.68 35.805 9.68 32.655V23.135C9.68 19.8917 10.2867 17.4533 11.5 15.82C12.7133 14.1633 14.8017 13.335 17.765 13.335C20.565 13.335 22.5717 14.035 23.785 15.435C24.9983 16.8117 25.605 18.865 25.605 21.595V23.065H20.67V21.455C20.67 20.4283 20.6 19.6117 20.46 19.005C20.3433 18.3983 20.075 17.9317 19.655 17.605C19.2583 17.2783 18.6517 17.115 17.835 17.115C16.9717 17.115 16.33 17.325 15.91 17.745C15.49 18.165 15.21 18.7017 15.07 19.355C14.9533 20.0083 14.895 20.86 14.895 21.91V33.775C14.895 35.385 15.105 36.5867 15.525 37.38C15.9683 38.1733 16.785 38.57 17.975 38.57C19.1417 38.57 19.9467 38.15 20.39 37.31C20.8567 36.47 21.09 35.21 21.09 33.53V30.87H18.045V27.615H25.745V42H22.385L22.035 39.235C21.1483 41.335 19.55 42.385 17.24 42.385ZM33.1858 13.65H40.0108C42.9974 13.65 45.2258 14.2217 46.6958 15.365C48.1658 16.485 48.9008 18.4217 48.9008 21.175C48.9008 22.9717 48.6324 24.4417 48.0958 25.585C47.5824 26.705 46.6841 27.5217 45.4008 28.035L49.3558 42H44.1758L40.7808 29.015H38.3308V42H33.1858V13.65ZM39.9758 25.795C41.4458 25.795 42.4841 25.4567 43.0908 24.78C43.7208 24.1033 44.0358 22.995 44.0358 21.455C44.0358 19.9617 43.7558 18.8767 43.1958 18.2C42.6591 17.5233 41.6791 17.185 40.2558 17.185H38.3308V25.795H39.9758ZM56.3049 13.65H68.2049V17.29H61.4499V25.445H66.7699V29.05H61.4499V38.465H68.2749V42H56.3049V13.65ZM74.7756 13.65H86.6756V17.29H79.9206V25.445H85.2406V29.05H79.9206V38.465H86.7456V42H74.7756V13.65ZM93.2463 13.65H96.8513L103.746 29.82V13.65H108.016V42H104.586L97.6563 25.06V42H93.2463V13.65Z" fill="#EBEEE3"/>
<path d="M132.07 13.65H134.275L140.26 42H138.335L136.865 34.16H129.515L128.01 42H126.12L132.07 13.65ZM136.62 32.76L133.19 15.96L129.795 32.76H136.62ZM145.397 13.65H152.257C154.59 13.65 156.212 14.2683 157.122 15.505C158.032 16.7417 158.487 18.4567 158.487 20.65C158.487 22.4933 158.184 24.01 157.577 25.2C156.994 26.39 155.909 27.1133 154.322 27.37L158.872 42H156.982L152.572 27.72H147.287V42H145.397V13.65ZM152.187 26.25C153.89 26.25 155.057 25.795 155.687 24.885C156.317 23.9517 156.632 22.54 156.632 20.65C156.632 18.7367 156.305 17.3483 155.652 16.485C155.022 15.5983 153.855 15.155 152.152 15.155H147.287V26.25H152.187ZM168.849 32.935L162.304 13.65H164.264L169.829 30.66L175.114 13.65H177.074L170.739 32.935V42H168.849V32.935Z" fill="#A6B0A5"/>
</svg>
