<svg width="37" height="37" viewBox="0 0 37 37" fill="none" xmlns="http://www.w3.org/2000/svg">
<path d="M12.646 18.1523L16.5363 21.964L24.317 14.3406" stroke="#3D713C" stroke-width="2" stroke-linecap="round" stroke-linejoin="round"/>
<path d="M18.4815 1C23.0251 4.93861 28.9552 6.9893 35.0154 6.71759C35.8977 9.65837 36.1677 12.7429 35.8093 15.7879C35.4508 18.833 34.4714 21.7763 32.929 24.4431C31.3867 27.1099 29.3129 29.4458 26.831 31.3118C24.3491 33.1778 21.5097 34.536 18.4815 35.3056C15.4533 34.536 12.6138 33.1778 10.1319 31.3118C7.65003 29.4458 5.57629 27.1099 4.03394 24.4431C2.49159 21.7763 1.51211 18.833 1.1537 15.7879C0.795283 12.7429 1.06525 9.65837 1.94757 6.71759C8.00778 6.9893 13.9379 4.93861 18.4815 1" stroke="#3D713C" stroke-width="2" stroke-linecap="round" stroke-linejoin="round"/>
</svg>
