<svg width="34" height="37" viewBox="0 0 34 37" fill="none" xmlns="http://www.w3.org/2000/svg">
<path d="M4.88104 35.2239C7.02447 35.2239 8.76207 33.5214 8.76207 31.4213C8.76207 29.3211 7.02447 27.6187 4.88104 27.6187C2.7376 27.6187 1 29.3211 1 31.4213C1 33.5214 2.7376 35.2239 4.88104 35.2239Z" stroke="#3D713C" stroke-width="2" stroke-linecap="round" stroke-linejoin="round"/>
<path d="M26.2267 35.2239C28.3702 35.2239 30.1078 33.5214 30.1078 31.4213C30.1078 29.3211 28.3702 27.6187 26.2267 27.6187C24.0833 27.6187 22.3457 29.3211 22.3457 31.4213C22.3457 33.5214 24.0833 35.2239 26.2267 35.2239Z" stroke="#3D713C" stroke-width="2" stroke-linecap="round" stroke-linejoin="round"/>
<path d="M26.2267 27.6183H4.88103V1H1" stroke="#3D713C" stroke-width="2" stroke-linecap="round" stroke-linejoin="round"/>
<path d="M4.88103 4.80176L32.0483 6.70307L30.1078 20.0122H4.88103" stroke="#3D713C" stroke-width="2" stroke-linecap="round" stroke-linejoin="round"/>
</svg>
