<svg width="33" height="33" viewBox="0 0 33 33" fill="none" xmlns="http://www.w3.org/2000/svg">
<path d="M15.2677 1L31.3188 16.7268C31.7575 17.2074 32 17.8295 32 18.4742C32 19.119 31.7575 19.7411 31.3188 20.2217L20.618 30.7062C20.1276 31.136 19.4926 31.3737 18.8346 31.3737C18.1765 31.3737 17.5416 31.136 17.0511 30.7062L1 14.9794V7.98969C1 6.13591 1.7516 4.35806 3.08945 3.04723C4.4273 1.73641 6.24182 1 8.13383 1H15.2677Z" stroke="#3D713C" stroke-width="2" stroke-linecap="round" stroke-linejoin="round"/>
<path d="M11.7007 14.9792C13.6707 14.9792 15.2676 13.4145 15.2676 11.4843C15.2676 9.5542 13.6707 7.9895 11.7007 7.9895C9.73075 7.9895 8.13379 9.5542 8.13379 11.4843C8.13379 13.4145 9.73075 14.9792 11.7007 14.9792Z" stroke="#3D713C" stroke-width="2" stroke-linecap="round" stroke-linejoin="round"/>
</svg>
