<svg width="49" height="51" viewBox="0 0 49 51" fill="none" xmlns="http://www.w3.org/2000/svg">
<path d="M37.3848 18.0492C33.5407 11.5068 35.1385 5.2702 28.6078 2.84733C23.2647 0.8651 19.7214 6.98983 14.8069 10.8152C10.6351 14.0625 6.43804 15.0991 5.14797 20.333C2.96828 29.1761 12.5441 34.3206 21.8835 37.1334C32.5583 40.3484 42.9794 41.5439 44.6183 32.453C45.7165 26.3611 40.8036 23.8676 37.3848 18.0492Z" fill="#EBEEE3"/>
<path d="M26.9169 36.5009C33.8222 36.5009 39.42 31.0162 39.42 24.2504C39.42 17.4847 33.8222 12 26.9169 12C20.0117 12 14.4139 17.4847 14.4139 24.2504C14.4139 31.0162 20.0117 36.5009 26.9169 36.5009Z" stroke="#3D713C" stroke-width="2" stroke-linecap="round" stroke-linejoin="round"/>
<path d="M26.921 36.5063L34.006 48.5322L37.336 41.9312L44.8337 42.4049L37.7486 30.3811" stroke="#3D713C" stroke-width="2" stroke-linecap="round" stroke-linejoin="round"/>
<path d="M16.0851 30.3811L9 42.4069L16.4977 41.9312L19.8276 48.5301L26.9127 36.5063" stroke="#3D713C" stroke-width="2" stroke-linecap="round" stroke-linejoin="round"/>
</svg>
