<svg width="146" height="33" viewBox="0 0 146 33" fill="none" xmlns="http://www.w3.org/2000/svg">
<path d="M0.482422 2.30859V1.3418H5.08008L23.5137 23.6855H23.5566L23.2559 2.52344L19.9688 2.30859V1.3418H27.918V2.30859L24.6094 2.52344L24.8457 32.4297H23.5352L5.10156 10.0215H5.05859L5.35938 30.8184L8.64648 31.0332V32H0.697266V31.0332L4.00586 30.8184L3.76953 2.52344L0.482422 2.30859ZM29.4013 27.3379C29.4013 26.6361 29.5087 25.9629 29.7235 25.3184C29.9527 24.6595 30.3179 24.0293 30.8192 23.4277C31.3205 22.8262 31.9364 22.3034 32.6669 21.8594C33.3973 21.4154 34.2997 21.0645 35.3739 20.8066C36.4624 20.5345 37.6656 20.3984 38.9833 20.3984C39.6851 20.3984 40.3511 20.4271 40.9813 20.4844V17.5195C40.9813 16.5742 40.9598 15.8079 40.9169 15.2207C40.8882 14.6335 40.8023 14.0319 40.6591 13.416C40.5158 12.7858 40.3082 12.306 40.036 11.9766C39.7782 11.6328 39.4058 11.3535 38.9188 11.1387C38.4462 10.9095 37.8661 10.7949 37.1786 10.7949C35.0874 10.7949 33.5621 11.6185 32.6024 13.2656V13.3516C32.8459 13.3086 33.0679 13.2871 33.2684 13.2871C34.0132 13.2871 34.6005 13.5163 35.0302 13.9746C35.4598 14.4329 35.6747 15.0918 35.6747 15.9512C35.6747 16.696 35.4169 17.3262 34.9013 17.8418C34.3856 18.3431 33.7411 18.5938 32.9677 18.5938C32.1226 18.5938 31.4566 18.3073 30.9696 17.7344C30.4826 17.1615 30.2391 16.4883 30.2391 15.7148C30.2391 14.0247 31.0126 12.6139 32.5595 11.4824C34.1207 10.3509 35.911 9.78516 37.9305 9.78516C39.3628 9.78516 40.5803 9.93555 41.5829 10.2363C42.5998 10.5371 43.4091 10.9382 44.0106 11.4395C44.6122 11.9264 45.0777 12.5996 45.4071 13.459C45.7509 14.304 45.9729 15.1706 46.0731 16.0586C46.1877 16.9466 46.245 18.0352 46.245 19.3242V30.9043L48.4579 31.1191V32H41.6259L41.0243 28.6055H40.9813C40.2795 29.9661 39.4273 30.9831 38.4247 31.6562C37.4364 32.3151 36.2333 32.6445 34.8153 32.6445C33.0679 32.6445 31.7287 32.1217 30.7977 31.0762C29.8667 30.0306 29.4013 28.7845 29.4013 27.3379ZM34.6005 26.8867C34.6005 28.0326 34.8153 28.9635 35.245 29.6797C35.6747 30.3815 36.3049 30.7324 37.1356 30.7324C38.1096 30.7324 38.9904 30.1237 39.7782 28.9062C40.5803 27.6888 40.9813 26.1992 40.9813 24.4375V21.4727C40.4084 21.401 39.9429 21.3652 39.5848 21.3652C38.8401 21.3652 38.174 21.4655 37.5868 21.666C37.0139 21.8665 36.5555 22.1387 36.2118 22.4824C35.868 22.8262 35.5816 23.1914 35.3524 23.5781C35.1233 23.9505 34.9585 24.3659 34.8583 24.8242C34.758 25.2826 34.6864 25.6621 34.6434 25.9629C34.6148 26.2637 34.6005 26.5716 34.6005 26.8867ZM48.5232 11.3535V10.4297H52.1755V5.68164L54.0232 5.48828L57.0525 4.69336L57.4607 5.31641V10.4297H62.1658V11.3535L57.4607 11.5469V26.6719C57.4607 27.5456 57.561 28.276 57.7615 28.8633C57.9763 29.4362 58.2485 29.8301 58.5779 30.0449C58.9216 30.2598 59.1938 30.3958 59.3943 30.4531C59.6091 30.5104 59.8311 30.5391 60.0603 30.5391C60.5043 30.5391 60.9269 30.446 61.3279 30.2598C61.7433 30.0592 62.1157 29.7728 62.4451 29.4004C62.7888 29.028 63.0681 28.6914 63.283 28.3906C63.4978 28.0755 63.7413 27.696 64.0134 27.252L64.9373 27.8105C64.1782 29.071 63.5193 29.9876 62.9607 30.5605C61.6 31.9499 60.0317 32.6445 58.2556 32.6445C57.5824 32.6445 56.9809 32.5944 56.4509 32.4941C55.9353 32.4082 55.3982 32.2148 54.8396 31.9141C54.281 31.6133 53.8155 31.2122 53.4431 30.7109C53.0707 30.1953 52.7628 29.4935 52.5193 28.6055C52.2901 27.7031 52.1755 26.6504 52.1755 25.4473V11.5469L48.5232 11.3535ZM64.487 12.1484V11.2676L68.9772 10.7949L72.0065 10L72.4147 10.623V26.1348C72.4147 26.9798 72.5006 27.7031 72.6725 28.3047C72.8587 28.9062 73.0592 29.3574 73.2741 29.6582C73.5032 29.9447 73.7825 30.1738 74.112 30.3457C74.4557 30.5033 74.7207 30.5964 74.9069 30.625C75.0931 30.6393 75.3008 30.6465 75.5299 30.6465C76.5325 30.6465 77.4492 30.0163 78.2799 28.7559C79.125 27.4811 79.5475 25.9199 79.5475 24.0723V12.1484H76.9049V11.2676L81.3952 10.7949L84.4245 10L84.8112 10.623V30.9043L87.0241 31.1191V32H80.278L79.6334 28.6914H79.5475C79.1751 29.2357 78.8242 29.7012 78.4948 30.0879C78.1653 30.4603 77.75 30.8685 77.2487 31.3125C76.7474 31.7422 76.1673 32.0716 75.5084 32.3008C74.8639 32.5299 74.1692 32.6445 73.4245 32.6445C72.9088 32.6445 72.4075 32.6016 71.9205 32.5156C71.4336 32.4297 70.8821 32.2435 70.2663 31.957C69.6647 31.6562 69.1419 31.2624 68.6979 30.7754C68.2682 30.2741 67.8958 29.5794 67.5807 28.6914C67.2799 27.7891 67.1295 26.7363 67.1295 25.5332V12.1484H64.487ZM88.6148 12.1484V11.2676L93.105 10.7949L96.1343 10L96.4351 10.623V14.3184H96.521C96.8075 13.7454 97.1584 13.1868 97.5738 12.6426C97.9891 12.0983 98.4403 11.6185 98.9273 11.2031C99.4286 10.7734 99.9585 10.4297 100.517 10.1719C101.076 9.91406 101.641 9.78516 102.214 9.78516C103.332 9.78516 104.191 10.0859 104.793 10.6875C105.408 11.2747 105.716 12.0625 105.716 13.0508C105.716 13.4661 105.652 13.8529 105.523 14.2109C105.394 14.5547 105.208 14.8555 104.964 15.1133C104.735 15.3711 104.449 15.5788 104.105 15.7363C103.776 15.8796 103.41 15.9512 103.009 15.9512C102.58 15.9512 102.193 15.8796 101.849 15.7363C101.505 15.5931 101.212 15.3997 100.968 15.1562C100.739 14.9128 100.56 14.6335 100.431 14.3184C100.302 13.9889 100.238 13.638 100.238 13.2656C100.238 12.5065 100.395 11.9479 100.71 11.5898V11.4609C100.195 11.5755 99.6864 11.8477 99.1851 12.2773C98.6981 12.707 98.2541 13.2943 97.8531 14.0391C97.452 14.7695 97.1297 15.6576 96.8863 16.7031C96.6428 17.7344 96.521 18.9017 96.521 20.2051V30.9043L98.7339 31.1191V32H89.0445V31.1191L91.2573 30.9043V12.1484H88.6148ZM106.705 27.3379C106.705 26.6361 106.813 25.9629 107.028 25.3184C107.257 24.6595 107.622 24.0293 108.123 23.4277C108.625 22.8262 109.241 22.3034 109.971 21.8594C110.702 21.4154 111.604 21.0645 112.678 20.8066C113.767 20.5345 114.97 20.3984 116.287 20.3984C116.989 20.3984 117.655 20.4271 118.286 20.4844V17.5195C118.286 16.5742 118.264 15.8079 118.221 15.2207C118.192 14.6335 118.107 14.0319 117.963 13.416C117.82 12.7858 117.612 12.306 117.34 11.9766C117.082 11.6328 116.71 11.3535 116.223 11.1387C115.75 10.9095 115.17 10.7949 114.483 10.7949C112.392 10.7949 110.866 11.6185 109.907 13.2656V13.3516C110.15 13.3086 110.372 13.2871 110.573 13.2871C111.317 13.2871 111.905 13.5163 112.334 13.9746C112.764 14.4329 112.979 15.0918 112.979 15.9512C112.979 16.696 112.721 17.3262 112.205 17.8418C111.69 18.3431 111.045 18.5938 110.272 18.5938C109.427 18.5938 108.761 18.3073 108.274 17.7344C107.787 17.1615 107.543 16.4883 107.543 15.7148C107.543 14.0247 108.317 12.6139 109.864 11.4824C111.425 10.3509 113.215 9.78516 115.235 9.78516C116.667 9.78516 117.885 9.93555 118.887 10.2363C119.904 10.5371 120.713 10.9382 121.315 11.4395C121.916 11.9264 122.382 12.5996 122.711 13.459C123.055 14.304 123.277 15.1706 123.377 16.0586C123.492 16.9466 123.549 18.0352 123.549 19.3242V30.9043L125.762 31.1191V32H118.93L118.329 28.6055H118.286C117.584 29.9661 116.732 30.9831 115.729 31.6562C114.741 32.3151 113.537 32.6445 112.12 32.6445C110.372 32.6445 109.033 32.1217 108.102 31.0762C107.171 30.0306 106.705 28.7845 106.705 27.3379ZM111.905 26.8867C111.905 28.0326 112.12 28.9635 112.549 29.6797C112.979 30.3815 113.609 30.7324 114.44 30.7324C115.414 30.7324 116.295 30.1237 117.082 28.9062C117.885 27.6888 118.286 26.1992 118.286 24.4375V21.4727C117.713 21.401 117.247 21.3652 116.889 21.3652C116.144 21.3652 115.478 21.4655 114.891 21.666C114.318 21.8665 113.86 22.1387 113.516 22.4824C113.172 22.8262 112.886 23.1914 112.657 23.5781C112.427 23.9505 112.263 24.3659 112.162 24.8242C112.062 25.2826 111.991 25.6621 111.948 25.9629C111.919 26.2637 111.905 26.5716 111.905 26.8867ZM126.773 3.03906V2.1582L131.263 1.68555L134.292 0.890625L134.679 1.51367V30.9043L136.892 31.1191V32H127.202V31.1191L129.415 30.9043V3.03906H126.773ZM139.32 29.8516C139.32 28.9492 139.593 28.2259 140.137 27.6816C140.695 27.123 141.412 26.8438 142.285 26.8438C143.188 26.8438 143.904 27.123 144.434 27.6816C144.978 28.2259 145.25 28.9492 145.25 29.8516C145.25 30.7253 144.978 31.4271 144.434 31.957C143.904 32.487 143.188 32.752 142.285 32.752C141.412 32.752 140.695 32.487 140.137 31.957C139.593 31.4128 139.32 30.7109 139.32 29.8516Z" fill="#A6B0A5"/>
</svg>
