<svg width="186" height="30" viewBox="0 0 186 30" fill="none" xmlns="http://www.w3.org/2000/svg">
<path d="M12.4717 4.93848C15.3831 4.99447 16.8529 6.9541 16.8809 10.8174C16.8249 14.6807 15.2992 16.6263 12.3037 16.6543H10.0781V4.93848H12.4717ZM14.2773 29C14.1094 28.3001 13.7314 27.9222 13.1436 27.8662H10.0781V17.9141H13.5215C18.3646 17.9141 21.402 16.3883 22.6338 13.3369C22.9977 12.4691 23.1797 11.5033 23.1797 10.4395C23.1797 7.80794 22.0039 5.91829 19.6523 4.77051C18.3086 4.12663 16.7129 3.80469 14.8652 3.80469H0.839844V4.93848H4.19922V27.8662H0.839844V29H14.2773ZM35.7975 27.9082H33.6979V1.70508H25.0895V2.79688H28.3649V25.6406C28.3649 26.7884 27.903 27.4883 26.9791 27.7402C26.5032 27.8522 25.8733 27.9082 25.0895 27.9082V29H36.8053C36.8053 28.3561 36.6233 28.0062 36.2594 27.9502C36.1194 27.9222 35.9655 27.9082 35.7975 27.9082ZM54.7141 29.4199C56.7578 29.4199 58.0315 28.6781 58.5354 27.1943C58.7034 26.6344 58.8294 25.9206 58.9134 25.0527L57.8216 25.0107C57.6536 26.9424 57.1637 27.9222 56.3518 27.9502C55.736 27.8942 55.428 27.1943 55.428 25.8506V17.0742C55.428 13.5749 53.8043 11.4193 50.5569 10.6074C49.7171 10.4115 48.8072 10.3135 47.8274 10.3135C44.0201 10.3135 41.6266 11.1393 40.6468 12.791C40.3948 13.2109 40.2688 13.6589 40.2688 14.1348C40.2688 15.2266 40.7867 15.9124 41.8225 16.1924C42.0745 16.2764 42.3404 16.3184 42.6204 16.3184C43.8242 16.3184 44.636 15.7305 45.0559 14.5547C45.1119 14.3867 45.1959 14.1068 45.3079 13.7148C45.6158 12.5951 46.0078 11.8952 46.4837 11.6152C46.7916 11.4753 47.1416 11.4053 47.5335 11.4053C48.8492 11.4053 49.6471 12.2031 49.927 13.7988C50.039 14.3867 50.095 15.0866 50.095 15.8984V18.6279C42.9003 18.7679 39.289 20.6715 39.261 24.3389C39.261 26.8304 40.3528 28.4261 42.5364 29.126C43.1803 29.3219 43.8942 29.4199 44.678 29.4199C47.0576 29.4199 48.8072 28.5241 49.927 26.7324C50.151 26.3685 50.333 25.9906 50.4729 25.5986C51.0608 28.0062 52.4746 29.2799 54.7141 29.4199ZM46.8616 27.6143C45.4619 27.5583 44.748 26.3125 44.72 23.877C44.72 22.0293 45.4759 20.8255 46.9876 20.2656C47.7994 20.0137 48.8352 19.8597 50.095 19.8037V23.877C49.5631 25.8366 48.7093 27.0404 47.5335 27.4883C47.2815 27.5723 47.0576 27.6143 46.8616 27.6143ZM69.6415 27.9082H68.5917L68.6337 17.1582C68.8297 14.9466 69.6415 13.4909 71.0693 12.791C71.4612 12.5951 71.8671 12.4971 72.287 12.4971C73.8827 12.4971 74.8206 13.4349 75.1005 15.3105C75.1565 15.6745 75.1845 16.0524 75.1845 16.4443V25.7246C75.1845 26.9004 74.8766 27.5863 74.2607 27.7822C73.9807 27.8662 73.6448 27.9082 73.2529 27.9082V29H82.953C82.953 28.3561 82.7711 28.0062 82.4072 27.9502C82.2392 27.9222 82.0712 27.9082 81.9032 27.9082H80.5175V17.1582C80.5175 13.6868 79.2857 11.5173 76.8222 10.6494C76.1503 10.4255 75.4504 10.3135 74.7226 10.3135C72.679 10.3135 70.9433 11.1253 69.5155 12.749C69.0956 13.2249 68.7597 13.7148 68.5077 14.2188L68.2978 10.9434H60.8232V12.0352H63.2587V25.7246C63.2587 27.0124 62.6568 27.7262 61.453 27.8662C61.2571 27.8942 61.0471 27.9082 60.8232 27.9082V29H70.6493C70.6493 28.3561 70.4674 28.0062 70.1034 27.9502C69.9635 27.9222 69.8095 27.9082 69.6415 27.9082ZM85.0728 12.2451H87.9703V22.7432C87.9703 26.8024 89.65 29.028 93.0093 29.4199C93.3453 29.4479 93.6812 29.4619 94.0172 29.4619C96.1727 29.4619 97.6565 28.762 98.4683 27.3623C98.8602 26.6624 99.1682 25.7386 99.3922 24.5908L98.2584 24.4229C97.6985 26.6904 96.8726 27.9362 95.7808 28.1602C95.6129 28.1882 95.4449 28.2021 95.2769 28.2021C94.2411 28.2021 93.6112 27.4743 93.3873 26.0186C93.3313 25.6826 93.3033 25.3327 93.3033 24.9688V12.2451H98.8463V11.1533H93.3033V6.28223L87.9703 7.16406V11.1533H85.0728V12.2451ZM119.017 29H118.216L116.751 26.7539C116.139 27.5612 115.397 28.2057 114.525 28.6875C113.652 29.1562 112.682 29.3906 111.614 29.3906H110.15C109.199 29.3906 108.301 29.2148 107.454 28.8633C106.621 28.4987 105.892 28.0039 105.267 27.3789C104.642 26.7539 104.147 26.0247 103.782 25.1914C103.431 24.3581 103.255 23.4661 103.255 22.5156V7.47656C103.255 6.52604 103.431 5.63411 103.782 4.80078C104.147 3.96745 104.642 3.23828 105.267 2.61328C105.892 1.98828 106.621 1.5 107.454 1.14844C108.301 0.783854 109.199 0.601562 110.15 0.601562H112.142C113.092 0.601562 113.984 0.783854 114.818 1.14844C115.651 1.5 116.38 1.98828 117.005 2.61328C117.63 3.23828 118.118 3.96745 118.47 4.80078C118.835 5.63411 119.017 6.52604 119.017 7.47656V8.60938L116.497 9V7.47656C116.497 6.85156 116.38 6.27214 116.146 5.73828C115.911 5.19141 115.592 4.71615 115.189 4.3125C114.785 3.90885 114.31 3.58984 113.763 3.35547C113.229 3.12109 112.65 3.00391 112.025 3.00391H110.267C109.642 3.00391 109.056 3.12109 108.509 3.35547C107.975 3.58984 107.5 3.90885 107.083 4.3125C106.68 4.71615 106.361 5.19141 106.126 5.73828C105.892 6.27214 105.775 6.85156 105.775 7.47656V22.5156C105.775 23.1406 105.892 23.7266 106.126 24.2734C106.361 24.8073 106.68 25.2826 107.083 25.6992C107.5 26.1029 107.975 26.4219 108.509 26.6562C109.056 26.8906 109.642 27.0078 110.267 27.0078H112.025C112.65 27.0078 113.229 26.8906 113.763 26.6562C114.31 26.4219 114.785 26.1029 115.189 25.6992C115.592 25.2826 115.911 24.8073 116.146 24.2734C116.38 23.7266 116.497 23.1406 116.497 22.5156V16.6758H112.025V14.2734H119.017V29ZM137.59 29L136.262 26.9688C135.715 27.7109 135.032 28.3034 134.211 28.7461C133.391 29.1758 132.493 29.3906 131.516 29.3906H130.911C130.103 29.3906 129.342 29.2409 128.625 28.9414C127.909 28.6289 127.284 28.2057 126.75 27.6719C126.217 27.138 125.793 26.513 125.481 25.7969C125.181 25.0807 125.032 24.319 125.032 23.5117V9H127.434V23.6484C127.434 24.1302 127.525 24.5859 127.707 25.0156C127.89 25.4323 128.137 25.7969 128.45 26.1094C128.762 26.4219 129.127 26.6693 129.543 26.8516C129.973 27.0339 130.429 27.125 130.911 27.125H132.512C132.994 27.125 133.443 27.0339 133.86 26.8516C134.289 26.6693 134.661 26.4219 134.973 26.1094C135.286 25.7969 135.533 25.4323 135.715 25.0156C135.898 24.5859 135.989 24.1302 135.989 23.6484V9H138.391V29H137.59ZM144.601 4.19531V0.992188H147.394V4.19531H144.601ZM144.796 29V9H147.199V29H144.796ZM166.182 29L164.854 26.9688C164.307 27.7109 163.624 28.3034 162.804 28.7461C161.983 29.1758 161.085 29.3906 160.108 29.3906H159.503C158.695 29.3906 157.934 29.2409 157.218 28.9414C156.501 28.6289 155.876 28.2057 155.343 27.6719C154.809 27.138 154.386 26.513 154.073 25.7969C153.774 25.0807 153.624 24.319 153.624 23.5117V14.4883C153.624 13.681 153.774 12.9193 154.073 12.2031C154.386 11.487 154.809 10.862 155.343 10.3281C155.876 9.79427 156.501 9.3776 157.218 9.07812C157.934 8.76562 158.695 8.60938 159.503 8.60938H160.108C161.007 8.60938 161.84 8.79167 162.608 9.15625C163.376 9.52083 164.034 10.0286 164.581 10.6797V0.992188H166.983V29H166.182ZM164.581 14.3516C164.581 13.8698 164.49 13.4206 164.307 13.0039C164.125 12.5742 163.878 12.2031 163.565 11.8906C163.253 11.5781 162.882 11.3307 162.452 11.1484C162.035 10.9661 161.586 10.875 161.104 10.875H159.503C159.021 10.875 158.565 10.9661 158.136 11.1484C157.719 11.3307 157.354 11.5781 157.042 11.8906C156.729 12.2031 156.482 12.5742 156.3 13.0039C156.117 13.4206 156.026 13.8698 156.026 14.3516V23.6484C156.026 24.1302 156.117 24.5859 156.3 25.0156C156.482 25.4323 156.729 25.7969 157.042 26.1094C157.354 26.4219 157.719 26.6693 158.136 26.8516C158.565 27.0339 159.021 27.125 159.503 27.125H161.104C161.586 27.125 162.035 27.0339 162.452 26.8516C162.882 26.6693 163.253 26.4219 163.565 26.1094C163.878 25.7969 164.125 25.4323 164.307 25.0156C164.49 24.5859 164.581 24.1302 164.581 23.6484V14.3516ZM185.947 23.5117C185.947 24.319 185.791 25.0807 185.479 25.7969C185.179 26.513 184.762 27.138 184.229 27.6719C183.695 28.2057 183.07 28.6289 182.354 28.9414C181.637 29.2409 180.876 29.3906 180.068 29.3906H178.467C177.66 29.3906 176.898 29.2409 176.182 28.9414C175.465 28.6289 174.84 28.2057 174.307 27.6719C173.773 27.138 173.35 26.513 173.037 25.7969C172.738 25.0807 172.588 24.319 172.588 23.5117V14.4883C172.588 13.681 172.738 12.9193 173.037 12.2031C173.35 11.487 173.773 10.862 174.307 10.3281C174.84 9.79427 175.465 9.3776 176.182 9.07812C176.898 8.76562 177.66 8.60938 178.467 8.60938H180.068C180.876 8.60938 181.637 8.76562 182.354 9.07812C183.07 9.3776 183.695 9.79427 184.229 10.3281C184.762 10.862 185.179 11.487 185.479 12.2031C185.791 12.9193 185.947 13.681 185.947 14.4883V19.1953H174.99V23.6484C174.99 24.1302 175.081 24.5859 175.264 25.0156C175.446 25.4323 175.693 25.7969 176.006 26.1094C176.318 26.4219 176.683 26.6693 177.1 26.8516C177.529 27.0339 177.985 27.125 178.467 27.125H180.068C180.55 27.125 180.999 27.0339 181.416 26.8516C181.846 26.6693 182.217 26.4219 182.529 26.1094C182.842 25.7969 183.089 25.4323 183.271 25.0156C183.454 24.5859 183.545 24.1302 183.545 23.6484V22.3203L185.947 22.7109V23.5117ZM183.545 14.3516C183.545 13.8698 183.454 13.4206 183.271 13.0039C183.089 12.5742 182.842 12.2031 182.529 11.8906C182.217 11.5781 181.846 11.3307 181.416 11.1484C180.999 10.9661 180.55 10.875 180.068 10.875H178.467C177.985 10.875 177.529 10.9661 177.1 11.1484C176.683 11.3307 176.318 11.5781 176.006 11.8906C175.693 12.2031 175.446 12.5742 175.264 13.0039C175.081 13.4206 174.99 13.8698 174.99 14.3516V17.3203H183.545V14.3516Z" fill="#A6B0A5"/>
</svg>
