<svg width="160" height="28" viewBox="0 0 160 28" fill="none" xmlns="http://www.w3.org/2000/svg">
<path d="M10.431 2.58C12.3057 2.58 13.909 2.90067 15.241 3.542C16.573 4.15867 17.5967 5.059 18.312 6.243C19.052 7.40233 19.422 8.80833 19.422 10.461C19.422 12.1137 19.052 13.532 18.312 14.716C17.5967 15.8753 16.573 16.7757 15.241 17.417C13.909 18.0337 12.3057 18.342 10.431 18.342H5.288V27H0.182V2.58H10.431ZM9.654 14.309C11.1833 14.309 12.3303 13.9883 13.095 13.347C13.8597 12.681 14.242 11.719 14.242 10.461C14.242 9.17833 13.8597 8.21633 13.095 7.575C12.3303 6.93367 11.1833 6.613 9.654 6.613H5.288V14.309H9.654ZM29.3189 0.396998V21.302C29.3189 22.1653 29.4669 22.7697 29.7629 23.115C30.0589 23.4603 30.5523 23.633 31.2429 23.633C31.6623 23.633 32.0076 23.6083 32.2789 23.559C32.5503 23.485 32.8956 23.3863 33.3149 23.263L32.8709 26.593C32.4516 26.8397 31.9213 27.0247 31.2799 27.148C30.6633 27.296 30.0466 27.37 29.4299 27.37C27.6293 27.37 26.3096 26.9383 25.4709 26.075C24.6569 25.187 24.2499 23.781 24.2499 21.857V0.396998H29.3189ZM47.605 15.197C47.605 14.1363 47.2967 13.31 46.68 12.718C46.088 12.126 45.2987 11.83 44.312 11.83C43.3993 11.83 42.5977 12.0643 41.907 12.533C41.2163 13.0017 40.7107 13.7787 40.39 14.864L36.061 13.532C36.4803 11.904 37.393 10.5967 38.799 9.61C40.2297 8.62333 42.1413 8.13 44.534 8.13C46.162 8.13 47.5803 8.389 48.789 8.907C49.9977 9.40033 50.935 10.1527 51.601 11.164C52.2917 12.1753 52.637 13.4457 52.637 14.975V22.486C52.637 23.4233 53.081 23.892 53.969 23.892C54.3883 23.892 54.783 23.8303 55.153 23.707L54.857 26.852C54.2157 27.1727 53.414 27.333 52.452 27.333C51.5887 27.333 50.8117 27.185 50.121 26.889C49.4303 26.593 48.8877 26.149 48.493 25.557C48.0983 24.9403 47.901 24.1757 47.901 23.263V23.115L48.789 22.967C48.641 23.9043 48.234 24.706 47.568 25.372C46.902 26.0133 46.088 26.5067 45.126 26.852C44.1887 27.1973 43.2143 27.37 42.203 27.37C40.945 27.37 39.8597 27.185 38.947 26.815C38.0343 26.4203 37.3313 25.853 36.838 25.113C36.3447 24.373 36.098 23.4603 36.098 22.375C36.098 20.9937 36.542 19.8713 37.43 19.008C38.318 18.12 39.5883 17.5157 41.241 17.195L48.197 15.789L48.16 18.934L43.72 19.822C42.8813 19.9947 42.24 20.229 41.796 20.525C41.3767 20.7963 41.167 21.2527 41.167 21.894C41.167 22.5107 41.389 22.9793 41.833 23.3C42.3017 23.6207 42.8567 23.781 43.498 23.781C44.016 23.781 44.5217 23.7193 45.015 23.596C45.5083 23.4727 45.9523 23.2753 46.347 23.004C46.7417 22.7327 47.05 22.3627 47.272 21.894C47.494 21.4253 47.605 20.858 47.605 20.192V15.197ZM59.0461 27V8.5H63.5971L63.8931 14.05L63.2641 13.458C63.5601 12.2493 64.0288 11.2503 64.6701 10.461C65.3114 9.67167 66.0884 9.092 67.0011 8.722C67.9384 8.32733 68.9621 8.13 70.0721 8.13C71.3548 8.13 72.4894 8.37667 73.4761 8.87C74.4874 9.36333 75.2768 10.1157 75.8441 11.127C76.4361 12.1137 76.7321 13.3593 76.7321 14.864V27H71.6631V16.307C71.6631 14.7283 71.3548 13.643 70.7381 13.051C70.1214 12.4343 69.3198 12.126 68.3331 12.126C67.6424 12.126 66.9641 12.2987 66.2981 12.644C65.6568 12.9647 65.1264 13.495 64.7071 14.235C64.3124 14.975 64.1151 15.9617 64.1151 17.195V27H59.0461ZM89.0988 2.839V20.969C89.0988 21.857 89.3208 22.5107 89.7648 22.93C90.2334 23.3247 90.8624 23.522 91.6518 23.522C92.2684 23.522 92.8111 23.4357 93.2798 23.263C93.7484 23.0657 94.1678 22.8067 94.5378 22.486L95.3518 25.853C94.7598 26.3217 94.0198 26.6917 93.1318 26.963C92.2438 27.2343 91.3064 27.37 90.3198 27.37C89.0864 27.37 87.9888 27.185 87.0268 26.815C86.0894 26.445 85.3494 25.853 84.8068 25.039C84.2888 24.225 84.0298 23.1397 84.0298 21.783V4.245L89.0988 2.839ZM95.0188 8.5V12.274H80.6258V8.5H95.0188ZM102.296 27H100.391V0.822499H102.296V27ZM111.71 11.8115C112.561 10.7508 113.542 9.89983 114.652 9.2585C115.774 8.61717 117.02 8.2965 118.389 8.2965C119.4 8.2965 120.288 8.45683 121.053 8.7775C121.83 9.09817 122.471 9.56067 122.977 10.165C123.482 10.7693 123.865 11.497 124.124 12.348C124.383 13.199 124.512 14.161 124.512 15.234V27H122.736V15.234C122.736 13.5073 122.341 12.1568 121.552 11.1825C120.763 10.1958 119.56 9.7025 117.945 9.7025C116.748 9.7025 115.626 10.0108 114.578 10.6275C113.542 11.2318 112.617 12.0767 111.803 13.162V27H110.027V8.5925H111.007C111.315 8.5925 111.494 8.74667 111.544 9.055L111.71 11.8115ZM132.318 27V10.5165L129.728 10.35C129.383 10.313 129.21 10.1588 129.21 9.8875V9.166H132.318V6.835C132.318 5.78667 132.454 4.86783 132.725 4.0785C132.996 3.27683 133.379 2.61083 133.872 2.0805C134.365 1.55016 134.957 1.1555 135.648 0.8965C136.339 0.625166 137.103 0.489498 137.942 0.489498C138.324 0.489498 138.707 0.526499 139.089 0.600499C139.484 0.662166 139.835 0.754666 140.143 0.877999L140.088 1.729C140.063 1.84 140.008 1.914 139.921 1.951C139.847 1.97566 139.736 1.988 139.588 1.988C139.44 1.97567 139.249 1.95717 139.015 1.9325C138.781 1.8955 138.509 1.877 138.201 1.877C137.597 1.877 137.035 1.9695 136.517 2.1545C136.012 2.32716 135.574 2.61083 135.204 3.0055C134.834 3.40017 134.544 3.91817 134.334 4.5595C134.137 5.1885 134.038 5.9655 134.038 6.8905V9.166H140.014V10.4795H134.094V27H132.318ZM151.513 8.2965C152.833 8.2965 154.011 8.52467 155.047 8.981C156.095 9.425 156.977 10.0602 157.692 10.8865C158.407 11.7128 158.95 12.7118 159.32 13.8835C159.702 15.0428 159.894 16.344 159.894 17.787C159.894 19.23 159.702 20.5312 159.32 21.6905C158.95 22.8498 158.407 23.8427 157.692 24.669C156.977 25.4953 156.095 26.1305 155.047 26.5745C154.011 27.0185 152.833 27.2405 151.513 27.2405C150.193 27.2405 149.009 27.0185 147.961 26.5745C146.925 26.1305 146.043 25.4953 145.316 24.669C144.6 23.8427 144.051 22.8498 143.669 21.6905C143.299 20.5312 143.114 19.23 143.114 17.787C143.114 16.344 143.299 15.0428 143.669 13.8835C144.051 12.7118 144.6 11.7128 145.316 10.8865C146.043 10.0602 146.925 9.425 147.961 8.981C149.009 8.52467 150.193 8.2965 151.513 8.2965ZM151.513 25.853C152.611 25.853 153.567 25.668 154.381 25.298C155.207 24.9157 155.891 24.373 156.434 23.67C156.989 22.967 157.402 22.1222 157.674 21.1355C157.945 20.1365 158.081 19.0203 158.081 17.787C158.081 16.566 157.945 15.456 157.674 14.457C157.402 13.458 156.989 12.607 156.434 11.904C155.891 11.1887 155.207 10.6398 154.381 10.2575C153.567 9.87517 152.611 9.684 151.513 9.684C150.415 9.684 149.453 9.87517 148.627 10.2575C147.813 10.6398 147.129 11.1887 146.574 11.904C146.031 12.607 145.618 13.458 145.334 14.457C145.063 15.456 144.927 16.566 144.927 17.787C144.927 19.0203 145.063 20.1365 145.334 21.1355C145.618 22.1222 146.031 22.967 146.574 23.67C147.129 24.373 147.813 24.9157 148.627 25.298C149.453 25.668 150.415 25.853 151.513 25.853Z" fill="#A6B0A5"/>
</svg>
