<svg width="411" height="16" viewBox="0 0 411 16" fill="none" xmlns="http://www.w3.org/2000/svg">
<path d="M6.24023 12.1465C5.44434 12.1465 4.70947 12.0098 4.03564 11.7363C3.3667 11.4629 2.7832 11.0796 2.28516 10.5864C1.79199 10.0933 1.40869 9.51221 1.13525 8.84326C0.866699 8.16943 0.732422 7.43701 0.732422 6.646C0.732422 5.8501 0.869141 5.11768 1.14258 4.44873C1.41602 3.7749 1.79932 3.19141 2.29248 2.69824C2.79053 2.20508 3.37402 1.82178 4.04297 1.54834C4.7168 1.2749 5.44922 1.13818 6.24023 1.13818C7.00684 1.13818 7.72217 1.27734 8.38623 1.55566C9.05518 1.8291 9.64111 2.21484 10.144 2.71289C10.647 3.20605 11.04 3.78711 11.3232 4.45605C11.6064 5.125 11.748 5.85498 11.748 6.646C11.748 7.43701 11.6113 8.16943 11.3379 8.84326C11.0645 9.51221 10.6787 10.0933 10.1807 10.5864C9.6875 11.0796 9.104 11.4629 8.43018 11.7363C7.76123 12.0098 7.03125 12.1465 6.24023 12.1465ZM6.47461 9.99316C5.48828 9.99316 4.74609 9.69043 4.24805 9.08496C3.75 8.47461 3.50098 7.66162 3.50098 6.646C3.50098 5.99658 3.61816 5.42285 3.85254 4.9248C4.0918 4.42188 4.43604 4.02881 4.88525 3.74561C5.33936 3.45752 5.88867 3.31348 6.5332 3.31348C6.85547 3.31348 7.17529 3.35254 7.49268 3.43066C7.81006 3.50879 8.10791 3.61865 8.38623 3.76025L7.97607 4.60986C7.73193 4.48291 7.49023 4.3877 7.25098 4.32422C7.01172 4.25586 6.77734 4.22168 6.54785 4.22168C5.92773 4.22168 5.44678 4.43896 5.10498 4.87354C4.76318 5.30322 4.59229 5.89404 4.59229 6.646C4.59229 7.42725 4.74609 8.02783 5.05371 8.44775C5.36621 8.86768 5.85693 9.07764 6.52588 9.07764C6.77002 9.07764 7.03125 9.0459 7.30957 8.98242C7.59277 8.91895 7.86133 8.83594 8.11523 8.7334V9.62695C7.87598 9.73438 7.62939 9.82227 7.37549 9.89062C7.12158 9.95898 6.82129 9.99316 6.47461 9.99316ZM6.24023 11.3994C6.88965 11.3994 7.49756 11.2822 8.06396 11.0479C8.63525 10.8135 9.13574 10.4839 9.56543 10.0591C9.99512 9.62939 10.332 9.12646 10.5762 8.55029C10.8203 7.96924 10.9424 7.33447 10.9424 6.646C10.9424 5.9917 10.8252 5.37891 10.5908 4.80762C10.3613 4.23633 10.0366 3.73096 9.6167 3.2915C9.19678 2.85205 8.69873 2.51025 8.12256 2.26611C7.55127 2.01709 6.92383 1.89258 6.24023 1.89258C5.55664 1.89258 4.92676 2.00977 4.35059 2.24414C3.7793 2.47852 3.28125 2.81055 2.85645 3.24023C2.43652 3.66504 2.10938 4.16797 1.875 4.74902C1.64551 5.3252 1.53076 5.95752 1.53076 6.646C1.53076 7.30029 1.64551 7.91553 1.875 8.4917C2.10449 9.06299 2.4292 9.56836 2.84912 10.0078C3.27393 10.4424 3.77197 10.7842 4.34326 11.0332C4.91943 11.2773 5.55176 11.3994 6.24023 11.3994ZM24.7333 12H17.7167V10.9819L20.5805 8.07422C21.1127 7.53711 21.5595 7.05859 21.9208 6.63867C22.287 6.21875 22.5653 5.80615 22.7558 5.40088C22.9462 4.99072 23.0414 4.5415 23.0414 4.05322C23.0414 3.44775 22.8607 2.98633 22.4994 2.66895C22.143 2.34668 21.6718 2.18555 21.0858 2.18555C20.5731 2.18555 20.119 2.27344 19.7235 2.44922C19.328 2.625 18.9228 2.87402 18.5077 3.19629L17.8559 2.37598C18.1391 2.13672 18.4467 1.92432 18.7787 1.73877C19.1156 1.55322 19.4745 1.40674 19.8554 1.29932C20.2411 1.19189 20.6513 1.13818 21.0858 1.13818C21.745 1.13818 22.3139 1.25293 22.7924 1.48242C23.2709 1.71191 23.6396 2.03906 23.8983 2.46387C24.162 2.88867 24.2938 3.39404 24.2938 3.97998C24.2938 4.54639 24.1815 5.07373 23.9569 5.56201C23.7323 6.04541 23.4174 6.52637 23.0121 7.00488C22.6068 7.47852 22.1332 7.98145 21.5912 8.51367L19.2621 10.8354V10.8867H24.7333V12ZM33.6759 6.63135C33.6759 7.50049 33.61 8.27686 33.4781 8.96045C33.3463 9.64404 33.1388 10.2227 32.8556 10.6963C32.5724 11.1699 32.2062 11.5312 31.7569 11.7803C31.3077 12.0244 30.7682 12.1465 30.1383 12.1465C29.3424 12.1465 28.6832 11.9292 28.1607 11.4946C27.6432 11.0601 27.255 10.4326 26.9962 9.6123C26.7423 8.78711 26.6153 7.79346 26.6153 6.63135C26.6153 5.48877 26.7301 4.50732 26.9596 3.68701C27.1939 2.86182 27.5699 2.22949 28.0875 1.79004C28.6051 1.3457 29.2887 1.12354 30.1383 1.12354C30.9439 1.12354 31.608 1.34326 32.1305 1.78271C32.6529 2.21729 33.0411 2.84717 33.295 3.67236C33.5489 4.49268 33.6759 5.479 33.6759 6.63135ZM27.8385 6.63135C27.8385 7.62744 27.9142 8.45752 28.0655 9.12158C28.2169 9.78564 28.461 10.2837 28.7979 10.6157C29.1397 10.9429 29.5865 11.1064 30.1383 11.1064C30.69 11.1064 31.1344 10.9429 31.4713 10.6157C31.8131 10.2886 32.0597 9.79297 32.211 9.12891C32.3673 8.46484 32.4454 7.63232 32.4454 6.63135C32.4454 5.6499 32.3697 4.82959 32.2184 4.17041C32.067 3.50635 31.8229 3.0083 31.4859 2.67627C31.149 2.33936 30.6998 2.1709 30.1383 2.1709C29.5768 2.1709 29.1275 2.33936 28.7906 2.67627C28.4537 3.0083 28.2096 3.50635 28.0582 4.17041C27.9117 4.82959 27.8385 5.6499 27.8385 6.63135ZM42.5013 12H35.4847V10.9819L38.3484 8.07422C38.8807 7.53711 39.3274 7.05859 39.6888 6.63867C40.055 6.21875 40.3333 5.80615 40.5237 5.40088C40.7142 4.99072 40.8094 4.5415 40.8094 4.05322C40.8094 3.44775 40.6287 2.98633 40.2674 2.66895C39.9109 2.34668 39.4397 2.18555 38.8538 2.18555C38.3411 2.18555 37.887 2.27344 37.4915 2.44922C37.096 2.625 36.6907 2.87402 36.2757 3.19629L35.6238 2.37598C35.907 2.13672 36.2146 1.92432 36.5467 1.73877C36.8836 1.55322 37.2425 1.40674 37.6233 1.29932C38.0091 1.19189 38.4192 1.13818 38.8538 1.13818C39.513 1.13818 40.0818 1.25293 40.5604 1.48242C41.0389 1.71191 41.4075 2.03906 41.6663 2.46387C41.93 2.88867 42.0618 3.39404 42.0618 3.97998C42.0618 4.54639 41.9495 5.07373 41.7249 5.56201C41.5003 6.04541 41.1854 6.52637 40.7801 7.00488C40.3748 7.47852 39.9012 7.98145 39.3592 8.51367L37.0301 10.8354V10.8867H42.5013V12ZM48.895 12H47.7085V4.41211C47.7085 4.12402 47.7085 3.87744 47.7085 3.67236C47.7134 3.4624 47.7183 3.27197 47.7231 3.10107C47.7329 2.92529 47.7451 2.74707 47.7598 2.56641C47.6084 2.72266 47.4668 2.85693 47.335 2.96924C47.2031 3.07666 47.0396 3.21094 46.8442 3.37207L45.6211 4.35352L44.9839 3.52588L47.8843 1.29199H48.895V12ZM61.4628 12H60.2104V2.39062H56.8412V1.29199H64.8173V2.39062H61.4628V12ZM69.6437 3.82617C70.3272 3.82617 70.9132 3.97754 71.4015 4.28027C71.8897 4.58301 72.2633 5.00781 72.5221 5.55469C72.7809 6.09668 72.9103 6.73145 72.9103 7.45898V8.21338H67.3658C67.3805 9.15576 67.6148 9.87354 68.0689 10.3667C68.523 10.8599 69.1627 11.1064 69.9879 11.1064C70.4957 11.1064 70.9449 11.0601 71.3355 10.9673C71.7262 10.8745 72.1314 10.7378 72.5514 10.5571V11.6265C72.1461 11.8071 71.7433 11.939 71.3429 12.022C70.9474 12.105 70.4786 12.1465 69.9366 12.1465C69.1651 12.1465 68.4913 11.9902 67.9151 11.6777C67.3438 11.3604 66.8995 10.8965 66.5821 10.2861C66.2647 9.67578 66.1061 8.92871 66.1061 8.04492C66.1061 7.18066 66.2501 6.43359 66.5382 5.80371C66.8312 5.16895 67.2413 4.68066 67.7687 4.33887C68.3009 3.99707 68.9259 3.82617 69.6437 3.82617ZM69.629 4.82227C68.9796 4.82227 68.462 5.03467 68.0763 5.45947C67.6905 5.88428 67.461 6.47754 67.3878 7.23926H71.6358C71.631 6.76074 71.5553 6.34082 71.4088 5.97949C71.2672 5.61328 71.0499 5.33008 70.7569 5.12988C70.464 4.9248 70.088 4.82227 69.629 4.82227ZM83.9915 3.82617C84.8753 3.82617 85.5418 4.05811 85.991 4.52197C86.4402 4.98096 86.6648 5.7207 86.6648 6.74121V12H85.4637V6.7998C85.4637 6.15039 85.3221 5.66455 85.0389 5.34229C84.7605 5.01514 84.3455 4.85156 83.7937 4.85156C83.0174 4.85156 82.4534 5.07617 82.1019 5.52539C81.7503 5.97461 81.5745 6.63623 81.5745 7.51025V12H80.366V6.7998C80.366 6.36523 80.3025 6.00391 80.1756 5.71582C80.0535 5.42773 79.868 5.21289 79.6189 5.07129C79.3748 4.9248 79.0647 4.85156 78.6888 4.85156C78.1565 4.85156 77.7293 4.96143 77.407 5.18115C77.0848 5.40088 76.8504 5.72803 76.7039 6.1626C76.5623 6.59229 76.4915 7.12207 76.4915 7.75195V12H75.2757V3.97266H76.2571L76.4402 5.10791H76.5061C76.6673 4.82959 76.8699 4.59521 77.1141 4.40479C77.3582 4.21436 77.6316 4.07031 77.9344 3.97266C78.2371 3.875 78.5594 3.82617 78.9012 3.82617C79.5115 3.82617 80.0218 3.94092 80.4319 4.17041C80.847 4.39502 81.1473 4.73926 81.3328 5.20312H81.3987C81.6624 4.73926 82.0237 4.39502 82.4827 4.17041C82.9417 3.94092 83.4446 3.82617 83.9915 3.82617ZM93.2344 3.82617C94.2354 3.82617 95.0337 4.17041 95.6294 4.85889C96.2251 5.54736 96.5229 6.58252 96.5229 7.96436C96.5229 8.87744 96.3862 9.64404 96.1128 10.2642C95.8394 10.8843 95.4536 11.353 94.9556 11.6704C94.4624 11.9878 93.8789 12.1465 93.2051 12.1465C92.7803 12.1465 92.4067 12.0903 92.0845 11.978C91.7622 11.8657 91.4863 11.7144 91.2568 11.5239C91.0273 11.3335 90.8369 11.126 90.6855 10.9014H90.5977C90.6123 11.0918 90.6294 11.3213 90.6489 11.5898C90.6733 11.8584 90.6855 12.0928 90.6855 12.293V15.5889H89.4624V3.97266H90.4658L90.627 5.15918H90.6855C90.8418 4.91504 91.0322 4.69287 91.2568 4.49268C91.4814 4.2876 91.7549 4.12646 92.0771 4.00928C92.4043 3.88721 92.79 3.82617 93.2344 3.82617ZM93.022 4.85156C92.4653 4.85156 92.0161 4.95898 91.6743 5.17383C91.3374 5.38867 91.0908 5.71094 90.9346 6.14062C90.7783 6.56543 90.6953 7.1001 90.6855 7.74463V7.979C90.6855 8.65771 90.7588 9.23145 90.9053 9.7002C91.0566 10.1689 91.3032 10.5254 91.645 10.7695C91.9917 11.0137 92.4556 11.1357 93.0366 11.1357C93.5347 11.1357 93.9497 11.0015 94.2817 10.7329C94.6138 10.4644 94.8604 10.0908 95.0215 9.6123C95.1875 9.12891 95.2705 8.57471 95.2705 7.94971C95.2705 7.00244 95.085 6.25049 94.7139 5.69385C94.3477 5.13232 93.7837 4.85156 93.022 4.85156ZM100.17 12H98.947V0.603516H100.17V12ZM106.044 3.84082C107.001 3.84082 107.711 4.05566 108.175 4.48535C108.639 4.91504 108.871 5.60107 108.871 6.54346V12H107.985L107.75 10.8135H107.692C107.467 11.1064 107.233 11.353 106.989 11.5532C106.745 11.7485 106.461 11.8975 106.139 12C105.822 12.0977 105.431 12.1465 104.967 12.1465C104.479 12.1465 104.044 12.061 103.663 11.8901C103.287 11.7192 102.99 11.4604 102.77 11.1138C102.555 10.7671 102.448 10.3276 102.448 9.79541C102.448 8.99463 102.765 8.37939 103.4 7.94971C104.035 7.52002 105.001 7.28564 106.3 7.24658L107.684 7.18799V6.69727C107.684 6.00391 107.536 5.51807 107.238 5.23975C106.94 4.96143 106.52 4.82227 105.978 4.82227C105.558 4.82227 105.158 4.8833 104.777 5.00537C104.396 5.12744 104.035 5.27148 103.693 5.4375L103.319 4.51465C103.681 4.3291 104.096 4.17041 104.564 4.03857C105.033 3.90674 105.526 3.84082 106.044 3.84082ZM107.67 8.04492L106.447 8.09619C105.446 8.13525 104.74 8.29883 104.33 8.58691C103.92 8.875 103.715 9.28271 103.715 9.81006C103.715 10.269 103.854 10.6084 104.132 10.8281C104.411 11.0479 104.779 11.1577 105.238 11.1577C105.951 11.1577 106.535 10.96 106.989 10.5645C107.443 10.1689 107.67 9.57568 107.67 8.78467V8.04492ZM114.269 11.1504C114.469 11.1504 114.674 11.1333 114.884 11.0991C115.094 11.0649 115.265 11.0234 115.397 10.9746V11.9194C115.255 11.9829 115.057 12.0366 114.803 12.0806C114.554 12.1245 114.31 12.1465 114.071 12.1465C113.646 12.1465 113.26 12.0732 112.914 11.9268C112.567 11.7754 112.289 11.5215 112.079 11.165C111.874 10.8086 111.771 10.3154 111.771 9.68555V4.9248H110.629V4.33154L111.778 3.85547L112.262 2.1123H112.994V3.97266H115.345V4.9248H112.994V9.64893C112.994 10.1519 113.109 10.5278 113.338 10.7769C113.573 11.0259 113.883 11.1504 114.269 11.1504ZM120.413 3.82617C121.097 3.82617 121.683 3.97754 122.171 4.28027C122.659 4.58301 123.033 5.00781 123.292 5.55469C123.551 6.09668 123.68 6.73145 123.68 7.45898V8.21338H118.136C118.15 9.15576 118.385 9.87354 118.839 10.3667C119.293 10.8599 119.932 11.1064 120.758 11.1064C121.265 11.1064 121.715 11.0601 122.105 10.9673C122.496 10.8745 122.901 10.7378 123.321 10.5571V11.6265C122.916 11.8071 122.513 11.939 122.113 12.022C121.717 12.105 121.248 12.1465 120.706 12.1465C119.935 12.1465 119.261 11.9902 118.685 11.6777C118.114 11.3604 117.669 10.8965 117.352 10.2861C117.034 9.67578 116.876 8.92871 116.876 8.04492C116.876 7.18066 117.02 6.43359 117.308 5.80371C117.601 5.16895 118.011 4.68066 118.538 4.33887C119.071 3.99707 119.696 3.82617 120.413 3.82617ZM120.399 4.82227C119.749 4.82227 119.232 5.03467 118.846 5.45947C118.46 5.88428 118.231 6.47754 118.158 7.23926H122.406C122.401 6.76074 122.325 6.34082 122.179 5.97949C122.037 5.61328 121.82 5.33008 121.527 5.12988C121.234 4.9248 120.858 4.82227 120.399 4.82227ZM131.238 9.80273C131.238 10.3154 131.109 10.7476 130.85 11.0991C130.596 11.4458 130.23 11.707 129.751 11.8828C129.278 12.0586 128.711 12.1465 128.052 12.1465C127.491 12.1465 127.005 12.1025 126.595 12.0146C126.185 11.9268 125.826 11.8022 125.518 11.6411V10.5205C125.845 10.6816 126.236 10.8281 126.69 10.96C127.144 11.0918 127.608 11.1577 128.082 11.1577C128.775 11.1577 129.278 11.0454 129.59 10.8208C129.903 10.5962 130.059 10.291 130.059 9.90527C130.059 9.68555 129.996 9.49268 129.869 9.32666C129.747 9.15576 129.539 8.99219 129.246 8.83594C128.953 8.6748 128.548 8.49902 128.03 8.30859C127.518 8.11328 127.073 7.92041 126.697 7.72998C126.326 7.53467 126.038 7.29785 125.833 7.01953C125.633 6.74121 125.533 6.37988 125.533 5.93555C125.533 5.25684 125.806 4.73682 126.353 4.37549C126.905 4.00928 127.627 3.82617 128.521 3.82617C129.004 3.82617 129.456 3.875 129.876 3.97266C130.301 4.06543 130.696 4.19238 131.062 4.35352L130.652 5.32764C130.32 5.18604 129.966 5.06641 129.59 4.96875C129.214 4.87109 128.831 4.82227 128.44 4.82227C127.879 4.82227 127.447 4.91504 127.144 5.10059C126.846 5.28613 126.697 5.54004 126.697 5.8623C126.697 6.11133 126.766 6.31641 126.902 6.47754C127.044 6.63867 127.269 6.79004 127.576 6.93164C127.884 7.07324 128.289 7.23926 128.792 7.42969C129.295 7.61523 129.729 7.80811 130.096 8.0083C130.462 8.20361 130.743 8.44287 130.938 8.72607C131.138 9.00439 131.238 9.36328 131.238 9.80273ZM136.328 14.8198C136.084 14.8198 135.869 14.8027 135.684 14.7686C135.498 14.7344 135.339 14.688 135.207 14.6294V13.5674C135.364 13.6162 135.532 13.6528 135.713 13.6772C135.893 13.7065 136.089 13.7212 136.299 13.7212C136.572 13.7212 136.824 13.6675 137.053 13.5601C137.283 13.4526 137.466 13.2695 137.602 13.0107C137.739 12.752 137.808 12.3955 137.808 11.9414V1.29199H139.06V11.8462C139.06 12.5151 138.948 13.0693 138.723 13.5088C138.503 13.9482 138.188 14.2754 137.778 14.4902C137.373 14.71 136.89 14.8198 136.328 14.8198ZM148.647 3.97266V12H147.651L147.475 10.8721H147.409C147.243 11.1504 147.028 11.3848 146.765 11.5752C146.501 11.7656 146.203 11.9072 145.871 12C145.544 12.0977 145.195 12.1465 144.824 12.1465C144.189 12.1465 143.657 12.0439 143.227 11.8389C142.797 11.6338 142.473 11.3164 142.253 10.8867C142.038 10.457 141.931 9.90527 141.931 9.23145V3.97266H143.161V9.14355C143.161 9.8125 143.313 10.313 143.615 10.645C143.918 10.9722 144.379 11.1357 145 11.1357C145.595 11.1357 146.069 11.0234 146.421 10.7988C146.777 10.5742 147.033 10.2446 147.19 9.81006C147.346 9.37061 147.424 8.8335 147.424 8.19873V3.97266H148.647ZM155.319 3.82617C156.271 3.82617 156.992 4.06055 157.48 4.5293C157.968 4.99316 158.212 5.74023 158.212 6.77051V12H157.011V6.85107C157.011 6.18213 156.857 5.68164 156.55 5.34961C156.247 5.01758 155.781 4.85156 155.151 4.85156C154.262 4.85156 153.637 5.10303 153.276 5.60596C152.914 6.10889 152.734 6.83887 152.734 7.7959V12H151.518V3.97266H152.499L152.682 5.12988H152.748C152.919 4.84668 153.137 4.60986 153.4 4.41943C153.664 4.22412 153.959 4.07764 154.286 3.97998C154.614 3.87744 154.958 3.82617 155.319 3.82617ZM163.258 15.6035C162.204 15.6035 161.391 15.4058 160.819 15.0103C160.248 14.6196 159.962 14.0703 159.962 13.3623C159.962 12.8594 160.121 12.4297 160.438 12.0732C160.761 11.7168 161.205 11.48 161.771 11.3628C161.562 11.2651 161.381 11.1187 161.229 10.9233C161.083 10.728 161.01 10.5034 161.01 10.2495C161.01 9.95654 161.09 9.7002 161.251 9.48047C161.417 9.25586 161.669 9.04102 162.006 8.83594C161.586 8.66504 161.244 8.37695 160.98 7.97168C160.722 7.56152 160.592 7.08545 160.592 6.54346C160.592 5.96729 160.712 5.47656 160.951 5.07129C161.19 4.66113 161.537 4.34863 161.991 4.13379C162.445 3.91895 162.995 3.81152 163.639 3.81152C163.781 3.81152 163.922 3.81885 164.064 3.8335C164.21 3.84326 164.35 3.86035 164.481 3.88477C164.613 3.9043 164.728 3.92871 164.826 3.95801H167.58V4.7417L166.1 4.9248C166.247 5.11523 166.369 5.34473 166.466 5.61328C166.564 5.88184 166.613 6.17969 166.613 6.50684C166.613 7.30762 166.342 7.94482 165.8 8.41846C165.258 8.88721 164.513 9.12158 163.566 9.12158C163.341 9.12158 163.112 9.10205 162.877 9.06299C162.638 9.19482 162.455 9.34131 162.328 9.50244C162.206 9.66357 162.145 9.84912 162.145 10.0591C162.145 10.2153 162.191 10.3398 162.284 10.4326C162.382 10.5254 162.521 10.5938 162.702 10.6377C162.882 10.6768 163.1 10.6963 163.354 10.6963H164.767C165.641 10.6963 166.31 10.8794 166.774 11.2456C167.243 11.6118 167.477 12.1465 167.477 12.8496C167.477 13.7383 167.116 14.4194 166.393 14.8931C165.67 15.3667 164.625 15.6035 163.258 15.6035ZM163.295 14.6514C163.959 14.6514 164.508 14.583 164.943 14.4463C165.382 14.3145 165.709 14.1216 165.924 13.8677C166.144 13.6187 166.254 13.3208 166.254 12.9741C166.254 12.6519 166.181 12.4077 166.034 12.2417C165.888 12.0806 165.673 11.9731 165.39 11.9194C165.106 11.8608 164.76 11.8315 164.35 11.8315H162.958C162.597 11.8315 162.282 11.8877 162.013 12C161.745 12.1123 161.537 12.2783 161.391 12.498C161.249 12.7178 161.178 12.9912 161.178 13.3184C161.178 13.7529 161.361 14.0825 161.728 14.3071C162.094 14.5366 162.616 14.6514 163.295 14.6514ZM163.61 8.23535C164.191 8.23535 164.628 8.08887 164.921 7.7959C165.214 7.50293 165.36 7.07568 165.36 6.51416C165.36 5.91357 165.211 5.46436 164.914 5.1665C164.616 4.86377 164.176 4.7124 163.595 4.7124C163.039 4.7124 162.609 4.86865 162.306 5.18115C162.008 5.48877 161.859 5.94043 161.859 6.53613C161.859 7.08301 162.011 7.50293 162.313 7.7959C162.616 8.08887 163.048 8.23535 163.61 8.23535ZM170.685 12H169.462V0.603516H170.685V12ZM176.646 3.82617C177.33 3.82617 177.916 3.97754 178.404 4.28027C178.892 4.58301 179.266 5.00781 179.525 5.55469C179.784 6.09668 179.913 6.73145 179.913 7.45898V8.21338H174.369C174.383 9.15576 174.618 9.87354 175.072 10.3667C175.526 10.8599 176.165 11.1064 176.991 11.1064C177.498 11.1064 177.948 11.0601 178.338 10.9673C178.729 10.8745 179.134 10.7378 179.554 10.5571V11.6265C179.149 11.8071 178.746 11.939 178.346 12.022C177.95 12.105 177.481 12.1465 176.939 12.1465C176.168 12.1465 175.494 11.9902 174.918 11.6777C174.347 11.3604 173.902 10.8965 173.585 10.2861C173.267 9.67578 173.109 8.92871 173.109 8.04492C173.109 7.18066 173.253 6.43359 173.541 5.80371C173.834 5.16895 174.244 4.68066 174.771 4.33887C175.304 3.99707 175.929 3.82617 176.646 3.82617ZM176.632 4.82227C175.982 4.82227 175.465 5.03467 175.079 5.45947C174.693 5.88428 174.464 6.47754 174.391 7.23926H178.639C178.634 6.76074 178.558 6.34082 178.412 5.97949C178.27 5.61328 178.053 5.33008 177.76 5.12988C177.467 4.9248 177.091 4.82227 176.632 4.82227ZM182.095 11.2383C182.095 10.8965 182.178 10.6548 182.344 10.5132C182.51 10.3667 182.713 10.2935 182.952 10.2935C183.201 10.2935 183.411 10.3667 183.582 10.5132C183.753 10.6548 183.838 10.8965 183.838 11.2383C183.838 11.5752 183.753 11.8218 183.582 11.978C183.411 12.1294 183.201 12.2051 182.952 12.2051C182.713 12.2051 182.51 12.1294 182.344 11.978C182.178 11.8218 182.095 11.5752 182.095 11.2383ZM199.402 6.54346C199.402 7.74951 199.182 8.75781 198.743 9.56836C198.303 10.374 197.666 10.9819 196.831 11.3921C196.001 11.7974 194.993 12 193.806 12H190.898V1.29199H194.128C195.217 1.29199 196.155 1.49219 196.941 1.89258C197.727 2.28809 198.333 2.87646 198.757 3.65771C199.187 4.43408 199.402 5.396 199.402 6.54346ZM198.091 6.5874C198.091 5.62549 197.93 4.83203 197.607 4.20703C197.29 3.58203 196.821 3.11816 196.201 2.81543C195.586 2.50781 194.832 2.354 193.938 2.354H192.144V10.9307H193.66C195.134 10.9307 196.24 10.5669 196.978 9.83936C197.72 9.11182 198.091 8.02783 198.091 6.5874ZM204.99 3.82617C205.674 3.82617 206.259 3.97754 206.748 4.28027C207.236 4.58301 207.61 5.00781 207.868 5.55469C208.127 6.09668 208.257 6.73145 208.257 7.45898V8.21338H202.712C202.727 9.15576 202.961 9.87354 203.415 10.3667C203.869 10.8599 204.509 11.1064 205.334 11.1064C205.842 11.1064 206.291 11.0601 206.682 10.9673C207.072 10.8745 207.478 10.7378 207.898 10.5571V11.6265C207.492 11.8071 207.09 11.939 206.689 12.022C206.294 12.105 205.825 12.1465 205.283 12.1465C204.511 12.1465 203.838 11.9902 203.261 11.6777C202.69 11.3604 202.246 10.8965 201.928 10.2861C201.611 9.67578 201.452 8.92871 201.452 8.04492C201.452 7.18066 201.596 6.43359 201.884 5.80371C202.177 5.16895 202.588 4.68066 203.115 4.33887C203.647 3.99707 204.272 3.82617 204.99 3.82617ZM204.975 4.82227C204.326 4.82227 203.808 5.03467 203.423 5.45947C203.037 5.88428 202.807 6.47754 202.734 7.23926H206.982C206.977 6.76074 206.902 6.34082 206.755 5.97949C206.613 5.61328 206.396 5.33008 206.103 5.12988C205.81 4.9248 205.434 4.82227 204.975 4.82227ZM215.815 9.80273C215.815 10.3154 215.685 10.7476 215.427 11.0991C215.173 11.4458 214.807 11.707 214.328 11.8828C213.854 12.0586 213.288 12.1465 212.629 12.1465C212.067 12.1465 211.581 12.1025 211.171 12.0146C210.761 11.9268 210.402 11.8022 210.095 11.6411V10.5205C210.422 10.6816 210.812 10.8281 211.267 10.96C211.721 11.0918 212.184 11.1577 212.658 11.1577C213.351 11.1577 213.854 11.0454 214.167 10.8208C214.479 10.5962 214.636 10.291 214.636 9.90527C214.636 9.68555 214.572 9.49268 214.445 9.32666C214.323 9.15576 214.116 8.99219 213.823 8.83594C213.53 8.6748 213.124 8.49902 212.607 8.30859C212.094 8.11328 211.65 7.92041 211.274 7.72998C210.903 7.53467 210.615 7.29785 210.41 7.01953C210.209 6.74121 210.109 6.37988 210.109 5.93555C210.109 5.25684 210.383 4.73682 210.93 4.37549C211.481 4.00928 212.204 3.82617 213.098 3.82617C213.581 3.82617 214.033 3.875 214.453 3.97266C214.877 4.06543 215.273 4.19238 215.639 4.35352L215.229 5.32764C214.897 5.18604 214.543 5.06641 214.167 4.96875C213.791 4.87109 213.408 4.82227 213.017 4.82227C212.455 4.82227 212.023 4.91504 211.721 5.10059C211.423 5.28613 211.274 5.54004 211.274 5.8623C211.274 6.11133 211.342 6.31641 211.479 6.47754C211.621 6.63867 211.845 6.79004 212.153 6.93164C212.46 7.07324 212.866 7.23926 213.369 7.42969C213.871 7.61523 214.306 7.80811 214.672 8.0083C215.038 8.20361 215.319 8.44287 215.515 8.72607C215.715 9.00439 215.815 9.36328 215.815 9.80273ZM219.286 3.97266V12H218.07V3.97266H219.286ZM218.693 0.969727C218.893 0.969727 219.064 1.03564 219.206 1.16748C219.352 1.29443 219.425 1.49463 219.425 1.76807C219.425 2.03662 219.352 2.23682 219.206 2.36865C219.064 2.50049 218.893 2.56641 218.693 2.56641C218.483 2.56641 218.307 2.50049 218.166 2.36865C218.029 2.23682 217.961 2.03662 217.961 1.76807C217.961 1.49463 218.029 1.29443 218.166 1.16748C218.307 1.03564 218.483 0.969727 218.693 0.969727ZM224.406 15.6035C223.351 15.6035 222.538 15.4058 221.967 15.0103C221.395 14.6196 221.11 14.0703 221.11 13.3623C221.11 12.8594 221.268 12.4297 221.586 12.0732C221.908 11.7168 222.352 11.48 222.919 11.3628C222.709 11.2651 222.528 11.1187 222.377 10.9233C222.23 10.728 222.157 10.5034 222.157 10.2495C222.157 9.95654 222.238 9.7002 222.399 9.48047C222.565 9.25586 222.816 9.04102 223.153 8.83594C222.733 8.66504 222.391 8.37695 222.128 7.97168C221.869 7.56152 221.74 7.08545 221.74 6.54346C221.74 5.96729 221.859 5.47656 222.098 5.07129C222.338 4.66113 222.684 4.34863 223.138 4.13379C223.593 3.91895 224.142 3.81152 224.786 3.81152C224.928 3.81152 225.07 3.81885 225.211 3.8335C225.358 3.84326 225.497 3.86035 225.629 3.88477C225.761 3.9043 225.875 3.92871 225.973 3.95801H228.727V4.7417L227.247 4.9248C227.394 5.11523 227.516 5.34473 227.614 5.61328C227.711 5.88184 227.76 6.17969 227.76 6.50684C227.76 7.30762 227.489 7.94482 226.947 8.41846C226.405 8.88721 225.66 9.12158 224.713 9.12158C224.489 9.12158 224.259 9.10205 224.025 9.06299C223.785 9.19482 223.602 9.34131 223.475 9.50244C223.353 9.66357 223.292 9.84912 223.292 10.0591C223.292 10.2153 223.339 10.3398 223.431 10.4326C223.529 10.5254 223.668 10.5938 223.849 10.6377C224.03 10.6768 224.247 10.6963 224.501 10.6963H225.914C226.788 10.6963 227.457 10.8794 227.921 11.2456C228.39 11.6118 228.624 12.1465 228.624 12.8496C228.624 13.7383 228.263 14.4194 227.54 14.8931C226.818 15.3667 225.773 15.6035 224.406 15.6035ZM224.442 14.6514C225.106 14.6514 225.656 14.583 226.09 14.4463C226.53 14.3145 226.857 14.1216 227.072 13.8677C227.291 13.6187 227.401 13.3208 227.401 12.9741C227.401 12.6519 227.328 12.4077 227.181 12.2417C227.035 12.0806 226.82 11.9731 226.537 11.9194C226.254 11.8608 225.907 11.8315 225.497 11.8315H224.105C223.744 11.8315 223.429 11.8877 223.16 12C222.892 12.1123 222.684 12.2783 222.538 12.498C222.396 12.7178 222.325 12.9912 222.325 13.3184C222.325 13.7529 222.509 14.0825 222.875 14.3071C223.241 14.5366 223.763 14.6514 224.442 14.6514ZM224.757 8.23535C225.338 8.23535 225.775 8.08887 226.068 7.7959C226.361 7.50293 226.508 7.07568 226.508 6.51416C226.508 5.91357 226.359 5.46436 226.061 5.1665C225.763 4.86377 225.324 4.7124 224.742 4.7124C224.186 4.7124 223.756 4.86865 223.453 5.18115C223.156 5.48877 223.007 5.94043 223.007 6.53613C223.007 7.08301 223.158 7.50293 223.461 7.7959C223.763 8.08887 224.196 8.23535 224.757 8.23535ZM234.41 3.82617C235.362 3.82617 236.083 4.06055 236.571 4.5293C237.059 4.99316 237.303 5.74023 237.303 6.77051V12H236.102V6.85107C236.102 6.18213 235.948 5.68164 235.641 5.34961C235.338 5.01758 234.872 4.85156 234.242 4.85156C233.353 4.85156 232.728 5.10303 232.367 5.60596C232.005 6.10889 231.825 6.83887 231.825 7.7959V12H230.609V3.97266H231.59L231.773 5.12988H231.839C232.01 4.84668 232.228 4.60986 232.491 4.41943C232.755 4.22412 233.05 4.07764 233.377 3.97998C233.705 3.87744 234.049 3.82617 234.41 3.82617ZM243.199 3.82617C243.883 3.82617 244.468 3.97754 244.957 4.28027C245.445 4.58301 245.819 5.00781 246.077 5.55469C246.336 6.09668 246.466 6.73145 246.466 7.45898V8.21338H240.921C240.936 9.15576 241.17 9.87354 241.624 10.3667C242.078 10.8599 242.718 11.1064 243.543 11.1064C244.051 11.1064 244.5 11.0601 244.891 10.9673C245.281 10.8745 245.687 10.7378 246.107 10.5571V11.6265C245.701 11.8071 245.299 11.939 244.898 12.022C244.503 12.105 244.034 12.1465 243.492 12.1465C242.72 12.1465 242.047 11.9902 241.47 11.6777C240.899 11.3604 240.455 10.8965 240.137 10.2861C239.82 9.67578 239.661 8.92871 239.661 8.04492C239.661 7.18066 239.805 6.43359 240.093 5.80371C240.386 5.16895 240.797 4.68066 241.324 4.33887C241.856 3.99707 242.481 3.82617 243.199 3.82617ZM243.184 4.82227C242.535 4.82227 242.017 5.03467 241.632 5.45947C241.246 5.88428 241.016 6.47754 240.943 7.23926H245.191C245.186 6.76074 245.111 6.34082 244.964 5.97949C244.822 5.61328 244.605 5.33008 244.312 5.12988C244.019 4.9248 243.643 4.82227 243.184 4.82227ZM251.687 12.1465C250.672 12.1465 249.866 11.7998 249.27 11.1064C248.68 10.4131 248.384 9.38281 248.384 8.01562C248.384 6.63379 248.687 5.59131 249.292 4.88818C249.898 4.18018 250.704 3.82617 251.709 3.82617C252.134 3.82617 252.505 3.88232 252.823 3.99463C253.14 4.10693 253.413 4.2583 253.643 4.44873C253.872 4.63428 254.065 4.84668 254.222 5.08594H254.309C254.29 4.93457 254.27 4.72705 254.251 4.46338C254.231 4.19971 254.222 3.98486 254.222 3.81885V0.603516H255.437V12H254.456L254.273 10.8574H254.222C254.07 11.0967 253.877 11.314 253.643 11.5093C253.413 11.7046 253.138 11.8608 252.815 11.978C252.498 12.0903 252.122 12.1465 251.687 12.1465ZM251.878 11.1357C252.737 11.1357 253.345 10.8916 253.702 10.4033C254.058 9.91504 254.236 9.18994 254.236 8.22803V8.0083C254.236 6.98779 254.065 6.2041 253.724 5.65723C253.387 5.11035 252.771 4.83691 251.878 4.83691C251.131 4.83691 250.572 5.125 250.201 5.70117C249.829 6.27246 249.644 7.05371 249.644 8.04492C249.644 9.03125 249.827 9.79297 250.193 10.3301C250.564 10.8672 251.126 11.1357 251.878 11.1357ZM263.728 0.603516V3.45264C263.728 3.77979 263.718 4.09717 263.699 4.40479C263.684 4.7124 263.672 4.95166 263.662 5.12256H263.728C263.948 4.76123 264.265 4.45605 264.68 4.20703C265.095 3.95801 265.625 3.8335 266.269 3.8335C267.275 3.8335 268.076 4.18262 268.672 4.88086C269.272 5.57422 269.573 6.60693 269.573 7.979C269.573 8.88232 269.436 9.64404 269.162 10.2642C268.889 10.8843 268.503 11.353 268.005 11.6704C267.507 11.9878 266.919 12.1465 266.24 12.1465C265.605 12.1465 265.083 12.0293 264.673 11.7949C264.267 11.5557 263.955 11.2651 263.735 10.9233H263.64L263.391 12H262.512V0.603516H263.728ZM266.072 4.85156C265.491 4.85156 265.029 4.96631 264.687 5.1958C264.346 5.42041 264.099 5.76221 263.948 6.22119C263.801 6.67529 263.728 7.25146 263.728 7.94971V8.01562C263.728 9.02637 263.896 9.80029 264.233 10.3374C264.57 10.8696 265.183 11.1357 266.072 11.1357C266.819 11.1357 267.378 10.8623 267.749 10.3154C268.125 9.76855 268.313 8.9873 268.313 7.97168C268.313 6.93652 268.127 6.15771 267.756 5.63525C267.39 5.11279 266.828 4.85156 266.072 4.85156ZM270.729 3.97266H272.033L273.806 8.63086C273.908 8.9043 274.003 9.16797 274.091 9.42188C274.179 9.6709 274.257 9.91016 274.326 10.1396C274.394 10.3691 274.448 10.5913 274.487 10.8062H274.538C274.606 10.562 274.704 10.2422 274.831 9.84668C274.958 9.44629 275.095 9.03857 275.241 8.62354L276.918 3.97266H278.229L274.736 13.1792C274.55 13.6724 274.333 14.1021 274.084 14.4683C273.84 14.8345 273.542 15.1152 273.19 15.3105C272.839 15.5107 272.414 15.6108 271.916 15.6108C271.687 15.6108 271.484 15.5962 271.308 15.5669C271.132 15.5425 270.981 15.5132 270.854 15.479V14.5049C270.961 14.5293 271.091 14.5513 271.242 14.5708C271.398 14.5903 271.56 14.6001 271.726 14.6001C272.028 14.6001 272.29 14.5415 272.509 14.4243C272.734 14.312 272.927 14.146 273.088 13.9263C273.249 13.7065 273.388 13.4453 273.505 13.1426L273.945 12.0146L270.729 3.97266ZM287.846 12H286.08V2.78613H282.946V1.29199H290.973V2.78613H287.846V12ZM295.968 3.73828C296.691 3.73828 297.311 3.88721 297.828 4.18506C298.346 4.48291 298.744 4.90527 299.022 5.45215C299.3 5.99902 299.44 6.65332 299.44 7.41504V8.33789H294.027C294.046 9.12402 294.256 9.72949 294.657 10.1543C295.062 10.5791 295.629 10.7915 296.356 10.7915C296.874 10.7915 297.337 10.7427 297.748 10.645C298.163 10.5425 298.59 10.3936 299.029 10.1982V11.5972C298.624 11.7876 298.212 11.9268 297.792 12.0146C297.372 12.1025 296.869 12.1465 296.283 12.1465C295.487 12.1465 294.786 11.9927 294.181 11.6851C293.58 11.3726 293.109 10.9087 292.767 10.2935C292.43 9.67822 292.262 8.91406 292.262 8.00098C292.262 7.09277 292.416 6.32129 292.723 5.68652C293.031 5.05176 293.463 4.56836 294.02 4.23633C294.576 3.9043 295.226 3.73828 295.968 3.73828ZM295.968 5.03467C295.426 5.03467 294.986 5.21045 294.65 5.56201C294.317 5.91357 294.122 6.42871 294.064 7.10742H297.755C297.75 6.70215 297.682 6.34326 297.55 6.03076C297.423 5.71826 297.228 5.47412 296.964 5.29834C296.705 5.12256 296.373 5.03467 295.968 5.03467ZM310.843 3.73828C311.751 3.73828 312.435 3.97266 312.894 4.44141C313.358 4.91016 313.59 5.66211 313.59 6.69727V12H311.868V7.00488C311.868 6.38965 311.749 5.92578 311.51 5.61328C311.27 5.30078 310.907 5.14453 310.418 5.14453C309.735 5.14453 309.242 5.36426 308.939 5.80371C308.641 6.23828 308.492 6.87061 308.492 7.70068V12H306.771V7.00488C306.771 6.59473 306.717 6.25293 306.61 5.97949C306.507 5.70117 306.348 5.49365 306.134 5.35693C305.919 5.21533 305.648 5.14453 305.321 5.14453C304.847 5.14453 304.469 5.25195 304.185 5.4668C303.907 5.68164 303.707 5.99902 303.585 6.41895C303.463 6.83398 303.402 7.34424 303.402 7.94971V12H301.68V3.89209H303.021L303.263 4.9834H303.358C303.524 4.7002 303.729 4.46826 303.973 4.2876C304.222 4.10205 304.498 3.96533 304.801 3.87744C305.103 3.78467 305.418 3.73828 305.745 3.73828C306.351 3.73828 306.861 3.8457 307.276 4.06055C307.691 4.27051 308.001 4.59277 308.206 5.02734H308.338C308.592 4.58789 308.946 4.26318 309.4 4.05322C309.854 3.84326 310.335 3.73828 310.843 3.73828ZM320.452 3.73828C321.414 3.73828 322.186 4.08984 322.767 4.79297C323.353 5.49609 323.646 6.54102 323.646 7.92773C323.646 8.8457 323.509 9.61963 323.235 10.2495C322.967 10.8745 322.588 11.3481 322.1 11.6704C321.617 11.9878 321.053 12.1465 320.408 12.1465C319.998 12.1465 319.642 12.0928 319.339 11.9854C319.036 11.8779 318.777 11.7388 318.562 11.5679C318.348 11.3921 318.167 11.2017 318.021 10.9966H317.918C317.942 11.1919 317.964 11.4092 317.984 11.6484C318.008 11.8828 318.021 12.0977 318.021 12.293V15.5962H316.292V3.89209H317.698L317.94 5.0127H318.021C318.172 4.7832 318.355 4.5708 318.57 4.37549C318.79 4.18018 319.053 4.02637 319.361 3.91406C319.673 3.79688 320.037 3.73828 320.452 3.73828ZM319.991 5.14453C319.517 5.14453 319.136 5.23975 318.848 5.43018C318.565 5.61572 318.357 5.89648 318.226 6.27246C318.099 6.64844 318.03 7.11963 318.021 7.68604V7.92773C318.021 8.52832 318.082 9.03857 318.204 9.4585C318.331 9.87354 318.538 10.1909 318.826 10.4106C319.119 10.6255 319.515 10.7329 320.013 10.7329C320.433 10.7329 320.779 10.6182 321.053 10.3887C321.331 10.1592 321.539 9.83203 321.675 9.40723C321.812 8.98242 321.88 8.48193 321.88 7.90576C321.88 7.03174 321.724 6.35303 321.412 5.86963C321.104 5.38623 320.63 5.14453 319.991 5.14453ZM327.666 12H325.938V0.603516H327.666V12ZM333.606 3.73828C334.631 3.73828 335.405 3.96533 335.928 4.41943C336.455 4.87354 336.719 5.58154 336.719 6.54346V12H335.496L335.166 10.8501H335.107C334.878 11.1431 334.641 11.3848 334.397 11.5752C334.153 11.7656 333.87 11.9072 333.547 12C333.23 12.0977 332.842 12.1465 332.383 12.1465C331.899 12.1465 331.467 12.0586 331.086 11.8828C330.705 11.7021 330.405 11.4287 330.185 11.0625C329.966 10.6963 329.856 10.2324 329.856 9.6709C329.856 8.83594 330.166 8.2085 330.786 7.78857C331.411 7.36865 332.353 7.13672 333.613 7.09277L335.019 7.0415V6.6167C335.019 6.05518 334.888 5.65479 334.624 5.41553C334.365 5.17627 333.999 5.05664 333.525 5.05664C333.12 5.05664 332.727 5.11523 332.346 5.23242C331.965 5.34961 331.594 5.49365 331.233 5.66455L330.676 4.44873C331.072 4.23877 331.521 4.06787 332.024 3.93604C332.532 3.8042 333.059 3.73828 333.606 3.73828ZM335.012 8.12549L333.965 8.16211C333.105 8.19141 332.502 8.33789 332.156 8.60156C331.809 8.86523 331.636 9.22656 331.636 9.68555C331.636 10.0859 331.755 10.3789 331.995 10.5645C332.234 10.7451 332.549 10.8354 332.939 10.8354C333.535 10.8354 334.028 10.667 334.419 10.3301C334.814 9.98828 335.012 9.48779 335.012 8.82861V8.12549ZM342.446 10.7549C342.671 10.7549 342.893 10.7354 343.112 10.6963C343.332 10.6523 343.532 10.6011 343.713 10.5425V11.8462C343.523 11.9292 343.276 12 342.973 12.0586C342.671 12.1172 342.356 12.1465 342.028 12.1465C341.569 12.1465 341.157 12.0708 340.791 11.9194C340.424 11.7632 340.134 11.4971 339.919 11.1211C339.704 10.7451 339.597 10.2251 339.597 9.56104V5.20312H338.491V4.43408L339.677 3.82617L340.241 2.09033H341.325V3.89209H343.647V5.20312H341.325V9.53906C341.325 9.94922 341.428 10.2544 341.633 10.4546C341.838 10.6548 342.109 10.7549 342.446 10.7549ZM348.891 3.73828C349.614 3.73828 350.234 3.88721 350.751 4.18506C351.269 4.48291 351.667 4.90527 351.945 5.45215C352.223 5.99902 352.363 6.65332 352.363 7.41504V8.33789H346.95C346.97 9.12402 347.18 9.72949 347.58 10.1543C347.985 10.5791 348.552 10.7915 349.279 10.7915C349.797 10.7915 350.261 10.7427 350.671 10.645C351.086 10.5425 351.513 10.3936 351.952 10.1982V11.5972C351.547 11.7876 351.135 11.9268 350.715 12.0146C350.295 12.1025 349.792 12.1465 349.206 12.1465C348.41 12.1465 347.709 11.9927 347.104 11.6851C346.503 11.3726 346.032 10.9087 345.69 10.2935C345.353 9.67822 345.185 8.91406 345.185 8.00098C345.185 7.09277 345.339 6.32129 345.646 5.68652C345.954 5.05176 346.386 4.56836 346.943 4.23633C347.499 3.9043 348.149 3.73828 348.891 3.73828ZM348.891 5.03467C348.349 5.03467 347.909 5.21045 347.573 5.56201C347.241 5.91357 347.045 6.42871 346.987 7.10742H350.678C350.673 6.70215 350.605 6.34326 350.473 6.03076C350.346 5.71826 350.151 5.47412 349.887 5.29834C349.628 5.12256 349.296 5.03467 348.891 5.03467ZM360.053 9.68555C360.053 10.2178 359.923 10.667 359.665 11.0332C359.406 11.3994 359.027 11.6777 358.529 11.8682C358.036 12.0537 357.431 12.1465 356.713 12.1465C356.146 12.1465 355.658 12.105 355.248 12.022C354.843 11.9438 354.459 11.8218 354.098 11.6558V10.1689C354.484 10.3496 354.916 10.5059 355.395 10.6377C355.878 10.7695 356.334 10.8354 356.764 10.8354C357.331 10.8354 357.738 10.7476 357.987 10.5718C358.236 10.3911 358.361 10.1519 358.361 9.854C358.361 9.67822 358.31 9.52197 358.207 9.38525C358.109 9.24365 357.924 9.09961 357.65 8.95312C357.382 8.80176 356.986 8.62109 356.464 8.41113C355.951 8.20605 355.519 8.00098 355.167 7.7959C354.816 7.59082 354.55 7.34424 354.369 7.05615C354.188 6.76318 354.098 6.38965 354.098 5.93555C354.098 5.21777 354.381 4.67334 354.948 4.30225C355.519 3.92627 356.273 3.73828 357.211 3.73828C357.709 3.73828 358.178 3.78955 358.617 3.89209C359.062 3.98975 359.496 4.13379 359.921 4.32422L359.379 5.62061C359.013 5.45947 358.644 5.32764 358.273 5.2251C357.907 5.11768 357.533 5.06396 357.152 5.06396C356.708 5.06396 356.369 5.13232 356.134 5.26904C355.905 5.40576 355.79 5.60107 355.79 5.85498C355.79 6.04541 355.846 6.20654 355.958 6.33838C356.071 6.47021 356.264 6.60205 356.537 6.73389C356.815 6.86572 357.201 7.0293 357.694 7.22461C358.178 7.41016 358.595 7.60547 358.947 7.81055C359.303 8.01074 359.577 8.25732 359.767 8.55029C359.958 8.84326 360.053 9.22168 360.053 9.68555ZM365.252 14.981C364.984 14.981 364.749 14.9639 364.549 14.9297C364.344 14.9004 364.168 14.8589 364.022 14.8052V13.333C364.178 13.3721 364.347 13.4062 364.527 13.4355C364.708 13.4648 364.901 13.4795 365.106 13.4795C365.374 13.4795 365.619 13.4282 365.838 13.3257C366.058 13.2231 366.231 13.0376 366.358 12.769C366.49 12.5005 366.556 12.1221 366.556 11.6338V1.29199H368.314V11.5752C368.314 12.3711 368.187 13.0181 367.933 13.5161C367.679 14.019 367.323 14.3877 366.864 14.6221C366.405 14.8613 365.868 14.981 365.252 14.981ZM378.275 3.89209V12H376.92L376.685 10.9087H376.59C376.419 11.187 376.202 11.4189 375.938 11.6045C375.674 11.7852 375.381 11.9194 375.059 12.0073C374.737 12.1001 374.398 12.1465 374.041 12.1465C373.431 12.1465 372.908 12.0439 372.474 11.8389C372.044 11.6289 371.714 11.3066 371.485 10.8721C371.255 10.4375 371.141 9.87598 371.141 9.1875V3.89209H372.869V8.86523C372.869 9.49512 372.996 9.96631 373.25 10.2788C373.509 10.5913 373.909 10.7476 374.451 10.7476C374.974 10.7476 375.389 10.6401 375.696 10.4253C376.004 10.2104 376.221 9.89307 376.348 9.47314C376.48 9.05322 376.546 8.53809 376.546 7.92773V3.89209H378.275ZM385.269 3.73828C386.182 3.73828 386.892 3.9751 387.4 4.44873C387.913 4.91748 388.169 5.67188 388.169 6.71191V12H386.448V7.03418C386.448 6.4043 386.319 5.93311 386.06 5.62061C385.801 5.30322 385.401 5.14453 384.859 5.14453C384.073 5.14453 383.526 5.38623 383.218 5.86963C382.915 6.35303 382.764 7.05371 382.764 7.97168V12H381.043V3.89209H382.383L382.625 4.99072H382.72C382.896 4.70752 383.113 4.47559 383.372 4.29492C383.636 4.10938 383.929 3.97021 384.251 3.87744C384.578 3.78467 384.917 3.73828 385.269 3.73828ZM393.193 15.6035C392.095 15.6035 391.252 15.4058 390.667 15.0103C390.081 14.6147 389.788 14.0605 389.788 13.3477C389.788 12.8496 389.944 12.4272 390.256 12.0806C390.569 11.7388 391.016 11.502 391.597 11.3701C391.377 11.2725 391.187 11.1211 391.025 10.916C390.869 10.7061 390.791 10.4741 390.791 10.2202C390.791 9.91748 390.876 9.65869 391.047 9.44385C391.218 9.229 391.475 9.02148 391.816 8.82129C391.392 8.64062 391.05 8.34766 390.791 7.94238C390.537 7.53223 390.41 7.05127 390.41 6.49951C390.41 5.91357 390.535 5.41553 390.784 5.00537C391.033 4.59033 391.396 4.27539 391.875 4.06055C392.354 3.84082 392.932 3.73096 393.611 3.73096C393.757 3.73096 393.916 3.74072 394.087 3.76025C394.263 3.7749 394.424 3.79443 394.57 3.81885C394.722 3.83838 394.836 3.86035 394.915 3.88477H397.72V4.84424L396.343 5.10059C396.475 5.28613 396.58 5.49854 396.658 5.73779C396.736 5.97217 396.775 6.22852 396.775 6.50684C396.775 7.34668 396.484 8.0083 395.903 8.4917C395.327 8.97021 394.531 9.20947 393.516 9.20947C393.271 9.19971 393.035 9.18018 392.805 9.15088C392.629 9.2583 392.495 9.37793 392.402 9.50977C392.31 9.63672 392.263 9.78076 392.263 9.94189C392.263 10.0737 392.31 10.1812 392.402 10.2642C392.495 10.3423 392.632 10.4009 392.812 10.4399C392.998 10.479 393.223 10.4985 393.486 10.4985H394.885C395.774 10.4985 396.453 10.6865 396.921 11.0625C397.39 11.4385 397.625 11.9902 397.625 12.7178C397.625 13.6406 397.244 14.3511 396.482 14.8491C395.72 15.3521 394.624 15.6035 393.193 15.6035ZM393.259 14.395C393.86 14.395 394.365 14.3364 394.775 14.2192C395.186 14.1021 395.496 13.9336 395.706 13.7139C395.916 13.499 396.021 13.2427 396.021 12.9448C396.021 12.6812 395.955 12.4785 395.823 12.3369C395.691 12.1953 395.493 12.0977 395.229 12.0439C394.966 11.9902 394.639 11.9634 394.248 11.9634H392.974C392.656 11.9634 392.375 12.0122 392.131 12.1099C391.887 12.2124 391.697 12.3589 391.56 12.5493C391.428 12.7397 391.362 12.9692 391.362 13.2378C391.362 13.6089 391.526 13.8945 391.853 14.0947C392.185 14.2949 392.654 14.395 393.259 14.395ZM393.596 8.08154C394.099 8.08154 394.473 7.94482 394.717 7.67139C394.961 7.39307 395.083 7.00244 395.083 6.49951C395.083 5.95264 394.956 5.54248 394.702 5.26904C394.453 4.99561 394.082 4.85889 393.589 4.85889C393.105 4.85889 392.737 4.99805 392.483 5.27637C392.234 5.55469 392.109 5.96729 392.109 6.51416C392.109 7.00732 392.234 7.39307 392.483 7.67139C392.737 7.94482 393.108 8.08154 393.596 8.08154ZM401.228 12H399.499V0.603516H401.228V12ZM407.219 3.73828C407.941 3.73828 408.561 3.88721 409.079 4.18506C409.597 4.48291 409.995 4.90527 410.273 5.45215C410.551 5.99902 410.69 6.65332 410.69 7.41504V8.33789H405.278C405.297 9.12402 405.507 9.72949 405.908 10.1543C406.313 10.5791 406.879 10.7915 407.607 10.7915C408.124 10.7915 408.588 10.7427 408.998 10.645C409.413 10.5425 409.841 10.3936 410.28 10.1982V11.5972C409.875 11.7876 409.462 11.9268 409.042 12.0146C408.622 12.1025 408.12 12.1465 407.534 12.1465C406.738 12.1465 406.037 11.9927 405.432 11.6851C404.831 11.3726 404.36 10.9087 404.018 10.2935C403.681 9.67822 403.513 8.91406 403.513 8.00098C403.513 7.09277 403.666 6.32129 403.974 5.68652C404.282 5.05176 404.714 4.56836 405.27 4.23633C405.827 3.9043 406.476 3.73828 407.219 3.73828ZM407.219 5.03467C406.677 5.03467 406.237 5.21045 405.9 5.56201C405.568 5.91357 405.373 6.42871 405.314 7.10742H409.006C409.001 6.70215 408.933 6.34326 408.801 6.03076C408.674 5.71826 408.478 5.47412 408.215 5.29834C407.956 5.12256 407.624 5.03467 407.219 5.03467Z" fill="#58575B"/>
</svg>
